<svg width="54" height="77" viewBox="0 0 54 77" fill="none" xmlns="http://www.w3.org/2000/svg">
<path d="M39 42.115C40.805 41.4287 42.4479 40.3753 43.8249 39.0216C45.2019 37.6678 46.2831 36.043 47 34.25C45.6739 34.25 44.4021 33.7232 43.4645 32.7855C42.5268 31.8479 42 30.5761 42 29.25V15.5C42 11.5218 40.4197 7.70644 37.6066 4.8934C34.7936 2.08035 30.9782 0.5 27 0.5C23.0218 0.5 19.2064 2.08035 16.3934 4.8934C13.5804 7.70644 12 11.5218 12 15.5V29.25C12 30.5761 11.4732 31.8479 10.5355 32.7855C9.59785 33.7232 8.32608 34.25 7 34.25C7.71693 36.043 8.79808 37.6678 10.1751 39.0216C11.5521 40.3753 13.195 41.4287 15 42.115H39Z" fill="#383838"/>
<path d="M17.5 42.115H39C40.805 41.4287 42.4479 40.3753 43.8249 39.0216C45.2019 37.6678 46.2831 36.043 47 34.25C45.6739 34.25 44.4021 33.7232 43.4645 32.7855C42.5268 31.8478 42 30.5761 42 29.25V15.5C41.9974 11.7399 40.5827 8.11794 38.0362 5.35148C35.4897 2.58501 31.997 0.875839 28.25 0.5625C24.503 0.875839 21.0103 2.58501 18.4638 5.35148C15.9173 8.11794 14.5026 11.7399 14.5 15.5V29.25C14.5 30.5761 13.9732 31.8478 13.0355 32.7855C12.0979 33.7232 10.8261 34.25 9.5 34.25C10.2171 36.0429 11.2983 37.6676 12.6753 39.0214C14.0523 40.3752 15.6951 41.4286 17.5 42.115Z" fill="#4C4C4C"/>
<path d="M10.75 76.75V72.185L7 72.0212C5.31832 71.95 3.7292 71.2318 2.56454 70.0166C1.39989 68.8014 0.749781 67.1832 0.75 65.5V54.52C0.749562 51.9178 1.63525 49.3929 3.26125 47.3612C4.87387 45.3451 7.12033 43.9329 9.63625 43.3538L22 40.5H32L40.5225 42.4663C42.8636 43.0068 45.0171 44.1645 46.7592 45.8192C48.5013 47.4738 49.7684 49.5649 50.4287 51.875C50.6436 52.6231 50.7929 53.3885 50.875 54.1625L53.25 76.75H10.75Z" fill="#4C4C4C"/>
<path d="M50.4287 51.875C49.7687 49.5646 48.5018 47.4732 46.7596 45.8183C45.0175 44.1634 42.8638 43.0055 40.5225 42.465L32 40.5H24.5L12.1325 43.3538C9.60756 43.9366 7.35469 45.3579 5.74149 47.3859C4.1283 49.4138 3.25003 51.9287 3.25 54.52V65.5C3.24978 67.1832 3.89989 68.8014 5.06454 70.0166C6.2292 71.2318 7.81832 71.95 9.5 72.0212L13.25 72.185V76.75H53.25L50.875 54.1625C50.7929 53.3885 50.6436 52.6231 50.4287 51.875Z" fill="#595959"/>
<path d="M13.4838 49.3287L25.8512 62.195L31.2 63.38L39.5 54.25L37 50.5L40.75 49.25L37.9863 41.8812L32 40.5H22L16.0138 41.8812L13.25 49.25L13.4838 49.3287Z" fill="#212121"/>
<path d="M20.4963 46.3225L19.5 43L22 40.5V36.7588H32V40.5L34.5 43L31.6887 52.37L20.4963 46.3225Z" fill="#D08D78"/>
<path d="M32 40.5V38C30.6658 38.7119 29.1948 39.1302 27.6857 39.227C26.1766 39.3238 24.6642 39.0968 23.25 38.5613V40.5L22.2 41.55C21.7616 41.9882 21.45 42.537 21.2984 43.138C21.1467 43.7391 21.1607 44.37 21.3388 44.9637C21.6011 45.8357 22.1985 46.568 23 47L31.8688 51.7913L34.5 43L32 40.5Z" fill="#F2B9A1"/>
<path d="M15.9587 20.5H14.5C13.5054 20.5 12.5516 20.8951 11.8483 21.5983C11.1451 22.3016 10.75 23.2554 10.75 24.25C10.75 25.2446 11.1451 26.1984 11.8483 26.9017C12.5516 27.6049 13.5054 28 14.5 28H16.5837M38.0413 20.5H39.5C40.4946 20.5 41.4484 20.8951 42.1516 21.5983C42.8549 22.3016 43.25 23.2554 43.25 24.25C43.25 25.2446 42.8549 26.1984 42.1516 26.9017C41.4484 27.6049 40.4946 28 39.5 28H37.4163" fill="#D08D78"/>
<path d="M38.25 18L37.3538 28.7612C37.2419 30.1001 36.8584 31.4022 36.2265 32.5879C35.5947 33.7736 34.7278 34.818 33.6787 35.6575C31.7829 37.1738 29.4276 37.9999 27 38C24.5724 37.9999 22.2171 37.1738 20.3212 35.6575C19.2722 34.818 18.4053 33.7736 17.7735 32.5879C17.1416 31.4022 16.7581 30.1001 16.6462 28.7612L15.75 18H20.75L23.25 11.75L25.75 18H30.75L32 15.5L34.5 18H38.25Z" fill="#D08D78"/>
<path d="M22.8212 35.6575C24.3837 36.9039 26.2646 37.6869 28.25 37.9175C30.2354 37.6869 32.1163 36.9039 33.6787 35.6575C34.7277 34.8179 35.5945 33.7735 36.2263 32.5878C36.8582 31.4021 37.2418 30.1001 37.3538 28.7613L38.25 18H34.5L32 15.5L30.75 18H25.75L23.25 11.75L20.75 18H18.25L19.1462 28.7613C19.2582 30.1001 19.6418 31.4021 20.2737 32.5878C20.9055 33.7735 21.7723 34.8179 22.8212 35.6575Z" fill="#F2B9A1"/>
<path d="M25.75 72.885H28.25V76.75H25.75V72.885ZM42 59.25H44.5V76.75H42V59.25Z" fill="#383838"/>
<path d="M17.4813 68L10.75 50.5L28.25 43L36.0812 64.255L35.75 68" fill="#2791F4"/>
<path d="M28.7612 44.3875L24.5587 46.1887C22.1528 47.2197 20.1764 49.0497 18.9637 51.3693C17.7509 53.689 17.376 56.3562 17.9024 58.9203C18.4288 61.4845 19.8241 63.7883 21.8527 65.4426C23.8812 67.0968 26.4187 68.0002 29.0362 68H35.75L36.0812 64.25L28.7612 44.3875Z" fill="#86C1F9"/>
<path d="M9.5 64.25H29.5V73L10.75 72.185" fill="#595959"/>
<path d="M29.5 65.5H30.6025C31.5216 65.5 32.428 65.2861 33.25 64.875C34.072 64.4639 34.9784 64.25 35.8975 64.25C36.8529 64.25 37.7692 64.6296 38.4448 65.3052C39.1205 65.9807 39.5 66.8971 39.5 67.8525V69.3975C39.5 70.3529 39.1205 71.2693 38.4448 71.9448C37.7692 72.6205 36.8529 73 35.8975 73C34.9784 73 34.072 72.7861 33.25 72.375C32.428 71.9639 31.5216 71.75 30.6025 71.75H29.5" fill="#F2B9A1"/>
<path d="M10.8037 70.9362L10.75 72.1862V73.4362L29.4463 74.25H29.5C29.8315 74.25 30.1495 74.1183 30.3839 73.8839C30.6183 73.6495 30.75 73.3315 30.75 73V64.25C30.75 63.9185 30.6183 63.6005 30.3839 63.3661C30.1495 63.1317 29.8315 63 29.5 63H9.5V65.5H28.25V71.695L10.8037 70.9362Z" fill="#383838"/>
</svg>
