<svg width="28" height="28" viewBox="0 0 28 28" fill="none" xmlns="http://www.w3.org/2000/svg">
<path d="M20.3584 26.5417C19.04 26.5417 17.6517 26.2267 16.2167 25.62C14.8167 25.025 13.405 24.2084 12.0284 23.2167C10.6634 22.2134 9.34504 21.0934 8.09671 19.8684C6.86004 18.62 5.74004 17.3017 4.74837 15.9484C3.74504 14.5484 2.94004 13.1484 2.36837 11.795C1.76171 10.3484 1.45837 8.94837 1.45837 7.63004C1.45837 6.72004 1.62171 5.85671 1.93671 5.05171C2.26337 4.22337 2.78837 3.45337 3.50004 2.78837C4.39837 1.90171 5.42504 1.45837 6.52171 1.45837C6.97671 1.45837 7.44337 1.56337 7.84004 1.75004C8.29504 1.96004 8.68004 2.27504 8.96004 2.69504L11.6667 6.51004C11.9117 6.84837 12.0984 7.17504 12.2267 7.50171C12.3784 7.85171 12.46 8.20171 12.46 8.54004C12.46 8.98337 12.3317 9.41504 12.0867 9.82337C11.9117 10.1384 11.6434 10.4767 11.305 10.815L10.5117 11.6434C10.5234 11.6784 10.535 11.7017 10.5467 11.725C10.6867 11.97 10.9667 12.39 11.5034 13.02C12.075 13.6734 12.6117 14.2684 13.1484 14.8167C13.8367 15.4934 14.4084 16.03 14.945 16.4734C15.61 17.0334 16.0417 17.3134 16.2984 17.4417L16.275 17.5L17.1267 16.66C17.4884 16.2984 17.8384 16.03 18.1767 15.855C18.8184 15.4584 19.635 15.3884 20.4517 15.7267C20.755 15.855 21.0817 16.03 21.4317 16.275L25.305 19.0284C25.7367 19.32 26.0517 19.6934 26.2384 20.1367C26.4134 20.58 26.495 20.9884 26.495 21.3967C26.495 21.9567 26.3667 22.5167 26.1217 23.0417C25.8767 23.5667 25.5734 24.0217 25.1884 24.4417C24.5234 25.1767 23.8 25.7017 22.96 26.04C22.155 26.3667 21.28 26.5417 20.3584 26.5417ZM6.52171 3.20837C5.88004 3.20837 5.28504 3.48837 4.71337 4.04837C4.17671 4.55004 3.80337 5.09837 3.57004 5.69337C3.32504 6.30004 3.20837 6.94171 3.20837 7.63004C3.20837 8.71504 3.46504 9.89338 3.97837 11.1067C4.50337 12.3434 5.23837 13.6267 6.17171 14.91C7.10504 16.1934 8.16671 17.4417 9.33337 18.62C10.5 19.775 11.76 20.8484 13.055 21.7934C14.315 22.715 15.61 23.4617 16.8934 23.9984C18.8884 24.85 20.755 25.0484 22.295 24.4067C22.89 24.1617 23.415 23.7884 23.8934 23.2517C24.1617 22.96 24.3717 22.645 24.5467 22.2717C24.6867 21.98 24.7567 21.6767 24.7567 21.3734C24.7567 21.1867 24.7217 21 24.6284 20.79C24.5934 20.72 24.5234 20.5917 24.3017 20.44L20.4284 17.6867C20.195 17.5234 19.985 17.4067 19.7867 17.325C19.53 17.22 19.425 17.115 19.0284 17.36C18.795 17.4767 18.585 17.6517 18.3517 17.885L17.465 18.76C17.01 19.2034 16.31 19.3084 15.7734 19.11L15.4584 18.97C14.98 18.7134 14.42 18.3167 13.8017 17.7917C13.2417 17.3134 12.635 16.7534 11.9 16.03C11.3284 15.4467 10.7567 14.8284 10.1617 14.14C9.61337 13.4984 9.21671 12.95 8.97171 12.495L8.83171 12.145C8.76171 11.8767 8.73837 11.725 8.73837 11.5617C8.73837 11.1417 8.89004 10.7684 9.18171 10.4767L10.0567 9.56671C10.29 9.33337 10.465 9.11171 10.5817 8.91337C10.675 8.76171 10.71 8.63337 10.71 8.51671C10.71 8.42337 10.675 8.28337 10.6167 8.14337C10.535 7.95671 10.4067 7.74671 10.2434 7.52504L7.53671 3.69837C7.42004 3.53504 7.28004 3.41837 7.10504 3.33671C6.91837 3.25504 6.72004 3.20837 6.52171 3.20837ZM16.275 17.5117L16.0884 18.305L16.4034 17.4884C16.345 17.4767 16.2984 17.4884 16.275 17.5117Z" fill="#2791F4"/>
</svg>
