<svg width="28" height="28" viewBox="0 0 28 28" fill="none" xmlns="http://www.w3.org/2000/svg">
<path d="M13.9999 16.5316C11.5149 16.5316 9.48486 14.5133 9.48486 12.0166C9.48486 9.51997 11.5149 7.51331 13.9999 7.51331C16.4849 7.51331 18.5149 9.53164 18.5149 12.0283C18.5149 14.525 16.4849 16.5316 13.9999 16.5316ZM13.9999 9.26331C12.4832 9.26331 11.2349 10.5 11.2349 12.0283C11.2349 13.5566 12.4715 14.7933 13.9999 14.7933C15.5282 14.7933 16.7649 13.5566 16.7649 12.0283C16.7649 10.5 15.5165 9.26331 13.9999 9.26331Z" fill="#2791F4"/>
<path d="M14.0002 26.5534C12.2735 26.5534 10.5352 25.9 9.18187 24.605C5.74021 21.2917 1.93687 16.0067 3.37187 9.71837C4.66687 4.01337 9.64854 1.45837 14.0002 1.45837C14.0002 1.45837 14.0002 1.45837 14.0119 1.45837C18.3635 1.45837 23.3452 4.01337 24.6402 9.73004C26.0635 16.0184 22.2602 21.2917 18.8185 24.605C17.4652 25.9 15.7269 26.5534 14.0002 26.5534ZM14.0002 3.20837C10.6052 3.20837 6.24187 5.01671 5.08687 10.1034C3.82687 15.5984 7.28021 20.335 10.4069 23.3334C12.4252 25.2817 15.5869 25.2817 17.6052 23.3334C20.7202 20.335 24.1735 15.5984 22.9369 10.1034C21.7702 5.01671 17.3952 3.20837 14.0002 3.20837Z" fill="#2791F4"/>
</svg>
