<svg width="80" height="80" viewBox="0 0 80 80" fill="none" xmlns="http://www.w3.org/2000/svg">
<path d="M11.0345 5.51733L0.0841395 50.3449C-0.0242455 50.7421 -0.0414385 51.1586 0.033846 51.5634C0.109131 51.9681 0.274944 52.3506 0.518888 52.6822C0.762832 53.0138 1.07859 53.286 1.44256 53.4784C1.80652 53.6708 2.20927 53.7784 2.62069 53.7932H13.7931L11.0345 5.51733Z" fill="#F29C1F"/>
<path d="M16.5517 59.3104H13.793C13.0621 59.3083 12.3617 59.0169 11.8448 58.5C11.3279 57.9832 11.0366 57.2828 11.0344 56.5518V5.51733H71.7241C72.455 5.51952 73.1554 5.81086 73.6723 6.32773C74.1892 6.8446 74.4805 7.54499 74.4827 8.27595V40.0001L16.5517 59.3104Z" fill="#F0C419"/>
<path d="M77.2414 40H19.3104C17.7868 40 16.5518 41.2351 16.5518 42.7586V77.2414C16.5518 78.7649 17.7868 80 19.3104 80H77.2414C78.765 80 80 78.7649 80 77.2414V42.7586C80 41.2351 78.765 40 77.2414 40Z" fill="#26B99A"/>
<path d="M22.069 31.7241C24.3543 31.7241 26.2069 29.8715 26.2069 27.5862C26.2069 25.3009 24.3543 23.4482 22.069 23.4482C19.7836 23.4482 17.931 25.3009 17.931 27.5862C17.931 29.8715 19.7836 31.7241 22.069 31.7241Z" fill="#F29C1F"/>
<path d="M35.8621 31.7241C38.1474 31.7241 40 29.8715 40 27.5862C40 25.3009 38.1474 23.4482 35.8621 23.4482C33.5767 23.4482 31.7241 25.3009 31.7241 27.5862C31.7241 29.8715 33.5767 31.7241 35.8621 31.7241Z" fill="#F29C1F"/>
<path d="M63.4482 31.7241C65.7335 31.7241 67.5862 29.8715 67.5862 27.5862C67.5862 25.3009 65.7335 23.4482 63.4482 23.4482C61.1629 23.4482 59.3103 25.3009 59.3103 27.5862C59.3103 29.8715 61.1629 31.7241 63.4482 31.7241Z" fill="#F29C1F"/>
<path d="M48.2759 33.1035C47.9101 33.1034 47.5593 32.9581 47.3007 32.6994L45.9214 31.3201C45.6701 31.0599 45.5311 30.7115 45.5342 30.3498C45.5374 29.9882 45.6824 29.6422 45.9382 29.3865C46.1939 29.1308 46.5399 28.9857 46.9015 28.9826C47.2632 28.9794 47.6116 29.1185 47.8717 29.3697L48.0621 29.5601L52.6455 22.6828C52.746 22.5321 52.8753 22.4027 53.0258 22.3019C53.1764 22.2012 53.3453 22.131 53.5229 22.0956C53.7006 22.0601 53.8835 22.0599 54.0612 22.0951C54.2389 22.1304 54.4079 22.2002 54.5586 22.3007C54.7093 22.4013 54.8387 22.5305 54.9395 22.681C55.0403 22.8316 55.1104 23.0005 55.1459 23.1782C55.1813 23.3558 55.1815 23.5387 55.1463 23.7164C55.1111 23.8941 55.0412 24.0631 54.9407 24.2138L49.4234 32.4897C49.3111 32.6604 49.1623 32.804 48.9877 32.9102C48.8131 33.0163 48.617 33.0824 48.4138 33.1035H48.2759Z" fill="#4FBA6F"/>
<path d="M49.6552 59.4484V51.2884C50.4592 51.5726 51.1558 52.0983 51.6496 52.7936C52.1434 53.4889 52.4103 54.3197 52.4138 55.1725C52.4138 55.5383 52.5592 55.8892 52.8178 56.1478C53.0765 56.4065 53.4273 56.5518 53.7931 56.5518C54.159 56.5518 54.5098 56.4065 54.7685 56.1478C55.0271 55.8892 55.1725 55.5383 55.1725 55.1725C55.1704 53.5833 54.6206 52.0433 53.6156 50.8122C52.6106 49.581 51.2119 48.734 49.6552 48.4139V46.8966C49.6552 46.5308 49.5099 46.18 49.2512 45.9213C48.9926 45.6627 48.6417 45.5173 48.2759 45.5173C47.9101 45.5173 47.5593 45.6627 47.3006 45.9213C47.0419 46.18 46.8966 46.5308 46.8966 46.8966V48.4139C45.3376 48.7305 43.9359 49.5763 42.9292 50.808C41.9224 52.0398 41.3724 53.5817 41.3724 55.1725C41.3724 56.7633 41.9224 58.3053 42.9292 59.537C43.9359 60.7687 45.3376 61.6146 46.8966 61.9311V70.0925C46.0924 69.8082 45.3956 69.2822 44.9018 68.5867C44.408 67.8912 44.1412 67.06 44.138 66.207C44.138 65.8412 43.9927 65.4903 43.734 65.2317C43.4753 64.973 43.1245 64.8277 42.7587 64.8277C42.3928 64.8277 42.042 64.973 41.7833 65.2317C41.5247 65.4903 41.3794 65.8412 41.3794 66.207C41.3814 67.7962 41.9312 69.3362 42.9362 70.5673C43.9412 71.7985 45.3399 72.6455 46.8966 72.9656V74.4829C46.8966 74.8487 47.0419 75.1995 47.3006 75.4582C47.5593 75.7168 47.9101 75.8622 48.2759 75.8622C48.6417 75.8622 48.9926 75.7168 49.2512 75.4582C49.5099 75.1995 49.6552 74.8487 49.6552 74.4829V72.9656C51.2142 72.649 52.6159 71.8032 53.6226 70.5715C54.6294 69.3397 55.1794 67.7978 55.1794 66.207C55.1794 64.6162 54.6294 63.0742 53.6226 61.8425C52.6159 60.6108 51.2142 59.7649 49.6552 59.4484ZM44.138 55.1725C44.1415 54.3197 44.4084 53.4889 44.9022 52.7936C45.396 52.0983 46.0926 51.5726 46.8966 51.2884V59.0566C46.0926 58.7724 45.396 58.2467 44.9022 57.5514C44.4084 56.8561 44.1415 56.0253 44.138 55.1725ZM49.6552 70.0911V62.3228C50.4615 62.6037 51.1604 63.1286 51.6549 63.8246C52.1494 64.5206 52.4151 65.3532 52.4151 66.207C52.4151 67.0608 52.1494 67.8934 51.6549 68.5894C51.1604 69.2854 50.4615 69.8102 49.6552 70.0911Z" fill="#ECF0F1"/>
<path d="M28.9656 63.4482C31.2509 63.4482 33.1035 61.5956 33.1035 59.3103C33.1035 57.025 31.2509 55.1724 28.9656 55.1724C26.6803 55.1724 24.8276 57.025 24.8276 59.3103C24.8276 61.5956 26.6803 63.4482 28.9656 63.4482Z" fill="#81CCB8"/>
<path d="M67.5862 63.4482C69.8715 63.4482 71.7241 61.5956 71.7241 59.3103C71.7241 57.025 69.8715 55.1724 67.5862 55.1724C65.3009 55.1724 63.4482 57.025 63.4482 59.3103C63.4482 61.5956 65.3009 63.4482 67.5862 63.4482Z" fill="#81CCB8"/>
<path d="M74.4827 8.27595V16.5518H11.0344V5.51733H71.7241C72.455 5.51952 73.1554 5.81086 73.6723 6.32773C74.1892 6.8446 74.4805 7.54499 74.4827 8.27595Z" fill="#E64C3C"/>
<path d="M80 68.9655V77.2414C79.9979 77.9723 79.7065 78.6727 79.1896 79.1896C78.6728 79.7065 77.9724 79.9978 77.2414 80H68.9656C68.9656 77.0735 70.1281 74.2668 72.1975 72.1974C74.2668 70.1281 77.0735 68.9655 80 68.9655ZM27.5862 40C27.5862 42.9265 26.4237 45.7332 24.3543 47.8026C22.2849 49.8719 19.4783 51.0345 16.5518 51.0345V42.7586C16.5539 42.0277 16.8453 41.3273 17.3622 40.8104C17.879 40.2935 18.5794 40.0022 19.3104 40H27.5862ZM27.5862 80H19.3104C18.5794 79.9978 17.879 79.7065 17.3622 79.1896C16.8453 78.6727 16.5539 77.9723 16.5518 77.2414V68.9655C19.4783 68.9655 22.2849 70.1281 24.3543 72.1974C26.4237 74.2668 27.5862 77.0735 27.5862 80ZM80 42.7586V51.0345C77.0735 51.0345 74.2668 49.8719 72.1975 47.8026C70.1281 45.7332 68.9656 42.9265 68.9656 40H77.2414C77.9724 40.0022 78.6728 40.2935 79.1896 40.8104C79.7065 41.3273 79.9979 42.0277 80 42.7586Z" fill="#14A085"/>
<path d="M68.9655 2.75862C68.9655 1.23508 67.7304 0 66.2069 0C64.6833 0 63.4482 1.23508 63.4482 2.75862V8.27586C63.4482 9.79941 64.6833 11.0345 66.2069 11.0345C67.7304 11.0345 68.9655 9.79941 68.9655 8.27586V2.75862Z" fill="#95A5A5"/>
<path d="M53.7931 2.75862C53.7931 1.23508 52.558 0 51.0345 0C49.511 0 48.2759 1.23508 48.2759 2.75862V8.27586C48.2759 9.79941 49.511 11.0345 51.0345 11.0345C52.558 11.0345 53.7931 9.79941 53.7931 8.27586V2.75862Z" fill="#95A5A5"/>
<path d="M38.6206 2.75862C38.6206 1.23508 37.3856 0 35.862 0C34.3385 0 33.1034 1.23508 33.1034 2.75862V8.27586C33.1034 9.79941 34.3385 11.0345 35.862 11.0345C37.3856 11.0345 38.6206 9.79941 38.6206 8.27586V2.75862Z" fill="#95A5A5"/>
<path d="M23.4483 2.75862C23.4483 1.23508 22.2132 0 20.6897 0C19.1661 0 17.931 1.23508 17.931 2.75862V8.27586C17.931 9.79941 19.1661 11.0345 20.6897 11.0345C22.2132 11.0345 23.4483 9.79941 23.4483 8.27586V2.75862Z" fill="#95A5A5"/>
</svg>
