<svg width="129" height="129" viewBox="0 0 129 129" fill="none" xmlns="http://www.w3.org/2000/svg">
<path d="M85.3534 66.3909H110.367C109.94 91.2975 105.033 95.4042 89.7267 104.471C87.9667 105.538 87.38 107.778 88.4467 109.591C89.5134 111.351 91.7534 111.938 93.5667 110.871C111.593 100.204 117.887 93.6975 117.887 62.6575V33.9108C117.887 24.7908 110.473 17.4308 101.407 17.4308H85.4067C76.02 17.4308 68.9267 24.5242 68.9267 33.9108V49.9108C68.8734 59.2975 75.9667 66.3909 85.3534 66.3909Z" fill="#222222" fill-opacity="0.3"/>
<path d="M27.6466 66.3909H52.66C52.2333 91.2975 47.3266 95.4042 32.02 104.471C30.26 105.538 29.6733 107.778 30.74 109.591C31.8066 111.351 34.0466 111.938 35.86 110.871C53.8866 100.204 60.18 93.6975 60.18 62.6575V33.9108C60.18 24.7908 52.7666 17.4308 43.7 17.4308H27.7C18.26 17.4308 11.1666 24.5242 11.1666 33.9108V49.9108C11.1666 59.2975 18.26 66.3909 27.6466 66.3909Z" fill="#222222" fill-opacity="0.3"/>
</svg>
