<svg width="176" height="158" viewBox="0 0 176 158" fill="none" xmlns="http://www.w3.org/2000/svg">
<path d="M134.991 38.8531C116.556 37.2594 99.4031 26.0094 92.9062 21.2281C91.4804 20.1916 89.7628 19.6332 88 19.6332C86.2372 19.6332 84.5196 20.1916 83.0938 21.2281C76.5938 26.0094 59.4437 37.2594 41.0094 38.8531C39.9223 38.9278 38.8608 39.2172 37.8862 39.7046C36.9116 40.192 36.0432 40.8677 35.3313 41.6926C34.6194 42.5176 34.078 43.4754 33.7385 44.5108C33.399 45.5462 33.268 46.6387 33.3531 47.725C34.1531 66.1375 44.9844 137.128 90.8438 138.05C133.491 128.3 141.272 66.4406 142.647 47.725C142.732 46.6384 142.602 45.5457 142.262 44.5099C141.923 43.4741 141.382 42.5159 140.67 41.6906C139.958 40.8653 139.089 40.1893 138.115 39.7018C137.14 39.2142 136.078 38.9278 134.991 38.8531ZM88 110.244C79.7177 110.231 71.7784 106.935 65.9219 101.078C60.0655 95.2216 56.7695 87.2823 56.7562 79C58.5125 37.5469 117.494 37.5594 119.244 79C119.231 87.2823 115.935 95.2216 110.078 101.078C104.222 106.935 96.2823 110.231 88 110.244ZM88 54.0063C81.374 54.0154 75.0221 56.6515 70.3368 61.3368C65.6515 66.0221 63.0153 72.374 63.0062 79C64.2656 112.113 111.738 112.103 112.994 79C112.985 72.374 110.348 66.0221 105.663 61.3368C100.978 56.6515 94.626 54.0154 88 54.0063ZM100.5 86.0312C100.498 88.5854 99.5303 91.0443 97.7918 92.9155C96.0533 94.7867 93.6721 95.932 91.125 96.1219C91.3562 98.3969 90.7031 100.791 88 100.872C85.3312 100.778 84.6437 98.4719 84.875 96.1844H78.625C77.7962 96.1844 77.0013 95.8551 76.4153 95.2691C75.8292 94.683 75.5 93.8882 75.5 93.0594C75.5 92.2306 75.8292 91.4357 76.4153 90.8497C77.0013 90.2636 77.7962 89.9344 78.625 89.9344H84.875V82.0594C82.3289 81.8691 79.9489 80.7235 78.2121 78.8521C76.4753 76.9807 75.5102 74.5219 75.5102 71.9688C75.5102 69.4156 76.4753 66.9568 78.2121 65.0854C79.9489 63.214 82.3289 62.0684 84.875 61.8781V60.2531C84.875 59.4243 85.2042 58.6295 85.7903 58.0434C86.3763 57.4574 87.1712 57.1281 88 57.1281C88.8288 57.1281 89.6237 57.4574 90.2097 58.0434C90.7958 58.6295 91.125 59.4243 91.125 60.2531V61.8156H97.375C98.2038 61.8156 98.9987 62.1449 99.5847 62.7309C100.171 63.317 100.5 64.1118 100.5 64.9406C100.5 65.7694 100.171 66.5643 99.5847 67.1503C98.9987 67.7364 98.2038 68.0656 97.375 68.0656H91.125V75.9406C93.6721 76.1306 96.0533 77.2758 97.7918 79.147C99.5303 81.0182 100.498 83.4771 100.5 86.0312ZM84.875 68.1563V75.7813C84.0058 75.5906 83.2278 75.1086 82.67 74.4152C82.1122 73.7218 81.8081 72.8587 81.8081 71.9688C81.8081 71.0788 82.1122 70.2157 82.67 69.5223C83.2278 68.8289 84.0058 68.3469 84.875 68.1563ZM91.125 82.2188C91.9942 82.4094 92.7722 82.8914 93.33 83.5848C93.8878 84.2782 94.1919 85.1413 94.1919 86.0312C94.1919 86.9212 93.8878 87.7843 93.33 88.4777C92.7722 89.1711 91.9942 89.6531 91.125 89.8438V82.2188ZM174.828 68.8094L165.456 80.9125C165.188 81.1867 164.889 81.4289 164.566 81.6344C164.054 81.9623 163.455 82.1285 162.848 82.1112C162.24 82.0939 161.652 81.894 161.159 81.5375L148.662 72.5563C148.009 72.0652 147.573 71.3373 147.45 70.5288C147.326 69.7204 147.525 68.8958 148.003 68.232C148.48 67.5682 149.199 67.1181 150.005 66.9783C150.811 66.8386 151.639 67.0202 152.312 67.4844L159.569 72.6969C157.974 54.8088 149.746 38.1641 136.503 26.0336C123.26 13.9031 105.959 7.16403 88 7.14063C87.1712 7.14063 86.3763 6.81138 85.7903 6.22533C85.2042 5.63928 84.875 4.84443 84.875 4.01563C84.875 3.18682 85.2042 2.39197 85.7903 1.80592C86.3763 1.21986 87.1712 0.890625 88 0.890625C107.232 0.915402 125.781 8.02514 140.102 20.8614C154.423 33.6976 163.513 51.3604 165.634 70.475L169.884 64.9844C170.392 64.3288 171.138 63.9016 171.961 63.7967C172.783 63.6918 173.613 63.9178 174.269 64.425C174.924 64.9322 175.352 65.6791 175.456 66.5013C175.561 67.3236 175.335 68.1538 174.828 68.8094ZM88 157.109C68.8003 157.084 50.2805 149.998 35.9681 137.2C21.6557 124.402 12.5508 106.787 10.3875 87.7094L6.14062 93.3719C5.85039 93.7609 5.47311 94.0766 5.039 94.2936C4.60488 94.5107 4.12598 94.6231 3.64062 94.6219C3.06313 94.6151 2.49867 94.4493 2.00918 94.1428C1.5197 93.8363 1.12411 93.4008 0.865831 92.8843C0.607549 92.3677 0.496556 91.79 0.54503 91.2145C0.593504 90.639 0.799573 90.088 1.14062 89.6219L10.5156 77.125C10.7942 76.7803 11.1408 76.4967 11.5338 76.2918C11.9268 76.087 12.3577 75.9652 12.7998 75.9341C13.2419 75.903 13.6856 75.9633 14.1034 76.1112C14.5212 76.2591 14.9041 76.4915 15.2281 76.7938L27.7219 89.2875C28.2911 89.8769 28.6061 90.6663 28.599 91.4856C28.5919 92.305 28.2632 93.0888 27.6838 93.6682C27.1044 94.2476 26.3206 94.5762 25.5013 94.5834C24.6819 94.5905 23.8925 94.2755 23.3031 93.7063L16.5937 86.9969C18.5802 104.551 26.9556 120.762 40.124 132.539C53.2924 144.316 70.3334 150.837 88 150.859C88.8288 150.859 89.6237 151.189 90.2097 151.775C90.7958 152.361 91.125 153.156 91.125 153.984C91.125 154.813 90.7958 155.608 90.2097 156.194C89.6237 156.78 88.8288 157.109 88 157.109Z" fill="white"/>
</svg>
