<svg width="108" height="96" viewBox="0 0 108 96" fill="none" xmlns="http://www.w3.org/2000/svg">
<path fill-rule="evenodd" clip-rule="evenodd" d="M75.25 85.4598V91.7498C75.25 92.7444 74.8549 93.6982 74.1517 94.4015C73.4484 95.1048 72.4946 95.4998 71.5 95.4998C70.5054 95.4998 69.5516 95.1048 68.8484 94.4015C68.1451 93.6982 67.75 92.7444 67.75 91.7498V85.4998H74C74.42 85.4998 74.835 85.4848 75.25 85.4598ZM67.75 85.4998H34C29.0272 85.4998 24.2581 83.5244 20.7417 80.0081C17.2254 76.4918 15.25 71.7227 15.25 66.7498V51.3398L43.82 67.1248C46.949 68.8084 50.4468 69.6897 54 69.6897C57.5532 69.6897 61.051 68.8084 64.18 67.1248L67.75 65.1548V85.4998ZM75.25 61.0098L92.75 51.3398V66.7498C92.7504 71.5066 90.943 76.0856 87.6937 79.5596C84.4444 83.0336 79.9961 85.1427 75.25 85.4598V61.0098Z" fill="#2791F4"/>
<path fill-rule="evenodd" clip-rule="evenodd" d="M67.75 59.4399L61.76 62.7499C59.3753 64.0348 56.7088 64.7074 54 64.7074C51.2912 64.7074 48.6247 64.0348 46.24 62.7499L4.67 39.7799C1.84 38.2149 0.25 35.4749 0.25 32.6099C0.25 29.7399 1.84 26.9999 4.67 25.4399L46.24 2.46491C48.6255 1.18262 51.2917 0.511475 54 0.511475C56.7083 0.511475 59.3745 1.18262 61.76 2.46491L103.33 25.4399C106.16 26.9999 107.75 29.7399 107.75 32.6099C107.75 35.4749 106.16 38.2149 103.33 39.7799L75.25 55.2949V51.7499C75.2504 51.2575 75.1534 50.7699 74.9646 50.3151C74.7758 49.8603 74.499 49.4473 74.15 49.0999L56.65 31.5999C56.302 31.2519 55.8889 30.9759 55.4342 30.7875C54.9795 30.5992 54.4922 30.5022 54 30.5022C53.5079 30.5022 53.0205 30.5992 52.5658 30.7875C52.1111 30.9759 51.698 31.2519 51.35 31.5999C51.002 31.9479 50.726 32.361 50.5376 32.8157C50.3493 33.2704 50.2523 33.7578 50.2523 34.2499C50.2523 34.7421 50.3493 35.2294 50.5376 35.6841C50.726 36.1388 51.002 36.5519 51.35 36.8999L67.75 53.3049V59.4399Z" fill="#2791F4"/>
</svg>
