<svg width="80" height="80" viewBox="0 0 80 80" fill="none" xmlns="http://www.w3.org/2000/svg">
<path d="M79.5713 29.8862C79.2733 29.5662 78.8439 29.4012 78.4067 29.4012H73.608C71.6702 21.3822 67.1389 14.1152 60.7392 8.815C53.88 3.13484 45.1908 0.0046875 36.2698 0C36.123 0 35.9747 0.0314062 35.8495 0.108438C35.5119 0.316406 35.3908 0.714844 35.5184 1.05547L39.8022 12.4878C39.858 12.6368 39.9579 12.7652 40.0886 12.8558C40.2194 12.9465 40.3747 12.995 40.5338 12.995C50.6639 12.995 59.54 19.7966 62.2763 29.4012H58.1559C57.7186 29.4012 57.2894 29.5662 56.9914 29.8862C56.4298 30.4894 56.4327 31.3734 56.9247 31.9639L67.0809 44.1514C67.2276 44.3274 67.4112 44.4689 67.6186 44.5661C67.8261 44.6632 68.0523 44.7136 68.2814 44.7136C68.5105 44.7136 68.7368 44.6632 68.9442 44.5661C69.1517 44.4689 69.3352 44.3274 69.4819 44.1514L79.6381 31.9639C80.13 31.3734 80.1327 30.4894 79.5713 29.8862Z" fill="#507BE9"/>
<path d="M35.4688 36.7188C44.9611 36.7188 52.6562 29.0236 52.6562 19.5312C52.6562 10.0389 44.9611 2.34375 35.4688 2.34375C25.9764 2.34375 18.2812 10.0389 18.2812 19.5312C18.2812 29.0236 25.9764 36.7188 35.4688 36.7188Z" fill="#FFEE78"/>
<path d="M52.6562 19.5312C52.6562 10.0389 44.9611 2.34375 35.4688 2.34375V36.7188C44.9611 36.7188 52.6562 29.0236 52.6562 19.5312Z" fill="#FCD232"/>
<path d="M35.4688 39.0625C24.6992 39.0625 15.9375 30.3008 15.9375 19.5312C15.9375 8.76172 24.6992 0 35.4688 0C46.2383 0 55 8.76172 55 19.5312C55 30.3008 46.2383 39.0625 35.4688 39.0625ZM35.4688 4.6875C27.2839 4.6875 20.625 11.3464 20.625 19.5312C20.625 27.7161 27.2839 34.375 35.4688 34.375C43.6536 34.375 50.3125 27.7161 50.3125 19.5312C50.3125 11.3464 43.6536 4.6875 35.4688 4.6875Z" fill="#FCD232"/>
<path d="M50.3125 19.5312C50.3125 27.7161 43.6536 34.375 35.4688 34.375V39.0625C46.2383 39.0625 55 30.3008 55 19.5312C55 8.76172 46.2383 0 35.4688 0V4.6875C43.6536 4.6875 50.3125 11.3464 50.3125 19.5312Z" fill="#F7B90F"/>
<path d="M41.7188 23.4375C41.7188 19.9913 38.915 17.1875 35.4688 17.1875C34.6072 17.1875 33.9062 16.4866 33.9062 15.625C33.9062 14.7634 34.6072 14.0625 35.4688 14.0625C36.2087 14.0625 36.8525 14.5872 36.9994 15.3102C37.2569 16.5786 38.4948 17.3981 39.7628 17.1406C41.0312 16.883 41.8508 15.6458 41.5933 14.3772C41.1681 12.2841 39.7066 10.6059 37.8125 9.83469V9.375C37.8125 8.08062 36.7631 7.03125 35.4688 7.03125C34.1744 7.03125 33.125 8.08062 33.125 9.375V9.83266C30.837 10.7619 29.2188 13.0073 29.2188 15.625C29.2188 19.0712 32.0225 21.875 35.4688 21.875C36.3303 21.875 37.0312 22.5759 37.0312 23.4375C37.0312 24.2991 36.3303 25 35.4688 25C34.7288 25 34.085 24.4753 33.9381 23.7523C33.6806 22.4839 32.4436 21.6647 31.1747 21.9219C29.9061 22.1795 29.0867 23.4167 29.3442 24.6853C29.7694 26.7784 31.2309 28.4567 33.1248 29.228V29.6875C33.1248 30.9819 34.1742 32.0312 35.4686 32.0312C36.763 32.0312 37.8123 30.9819 37.8123 29.6875V29.2298C40.1005 28.3006 41.7188 26.055 41.7188 23.4375Z" fill="#FCD232"/>
<path d="M35.4688 17.1875V21.875C36.3303 21.875 37.0312 22.5759 37.0312 23.4375C37.0312 24.2991 36.3303 25 35.4688 25V32.0312C36.7631 32.0312 37.8125 30.9819 37.8125 29.6875V29.2298C40.1005 28.3006 41.7188 26.0552 41.7188 23.4375C41.7188 19.9913 38.915 17.1875 35.4688 17.1875ZM36.9994 15.3102C37.2569 16.5786 38.4948 17.3981 39.7628 17.1406C41.0312 16.883 41.8508 15.6458 41.5933 14.3772C41.1681 12.2841 39.7066 10.6059 37.8125 9.83469V9.375C37.8125 8.08062 36.7631 7.03125 35.4688 7.03125V14.0625C36.2088 14.0625 36.8525 14.5872 36.9994 15.3102Z" fill="#F7B90F"/>
<path d="M79.0105 54.8354C77.2781 52.3613 73.8681 51.7601 71.3941 53.4924L54.6294 65.2311C53.9727 65.6909 53.1905 65.9376 52.3889 65.9376H40V76.875H53.3741C55.779 76.8751 58.1257 76.1352 60.0956 74.7557L77.6673 62.4518C80.1416 60.7194 80.743 57.3094 79.0105 54.8354Z" fill="#FABE8C"/>
<path d="M54.6294 65.2312C53.9727 65.6909 53.1905 65.9376 52.3889 65.9376L40 64.9769V70.6251H52.6562C58.2564 70.6251 62.8125 66.069 62.8125 60.4688C62.8125 60.153 62.7959 59.8412 62.7677 59.5327L54.6294 65.2312Z" fill="#E6A578"/>
<path d="M79.0105 54.8353C77.2781 52.3613 73.8681 51.76 71.3941 53.4923L57.2945 63.365C57.8384 62.497 58.1263 61.4931 58.125 60.4688C58.125 57.4484 55.6766 55 52.6562 55H39.375L37.8463 53.8534C34.8017 51.57 31.0292 50.3125 27.2234 50.3125C24.0146 50.3126 20.8661 51.1847 18.1145 52.8355L13.9502 55.3341C13.6031 55.5423 13.316 55.8369 13.1166 56.189C12.9172 56.5412 12.8125 56.939 12.8125 57.3438V74.5312C12.8125 75.8256 13.8619 76.875 15.1562 76.875H53.3741C55.779 76.875 58.1257 76.1351 60.0956 74.7556L77.6673 62.4517C80.1416 60.7194 80.743 57.3094 79.0105 54.8353Z" fill="#FFD2AA"/>
<path d="M40 76.875H53.3741C55.779 76.8751 58.1257 76.1352 60.0956 74.7557L77.6673 62.4518C80.1414 60.7194 80.7427 57.3094 79.0103 54.8354C77.278 52.3613 73.868 51.7601 71.3939 53.4924L57.2944 63.3651C57.8384 62.4971 58.1263 61.4932 58.125 60.4688C58.125 57.4485 55.6766 55.0001 52.6562 55.0001H40V76.875Z" fill="#FABE8C"/>
<path d="M62.7677 59.5327L57.2945 63.3651C57.2606 63.4193 57.2267 63.4737 57.1909 63.5265C56.2083 64.9812 54.5439 65.9376 52.6562 65.9376H36.25C34.9556 65.9376 33.9062 66.9869 33.9062 68.2813C33.9062 69.5757 34.9556 70.6251 36.25 70.6251H52.6562C58.2564 70.6251 62.8125 66.069 62.8125 60.4688C62.8125 60.153 62.7959 59.8412 62.7677 59.5327Z" fill="#FABE8C"/>
<path d="M15.1562 80H2.34375C1.04937 80 0 78.9506 0 77.6562V51.0938C0 49.7994 1.04937 48.75 2.34375 48.75H15.1562C16.4506 48.75 17.5 49.7994 17.5 51.0938V77.6562C17.5 78.9506 16.4506 80 15.1562 80Z" fill="#6496F7"/>
<path d="M62.7677 59.5327L57.2945 63.3651C57.2606 63.4193 57.2267 63.4737 57.1909 63.5265C56.2083 64.9812 54.5439 65.9376 52.6562 65.9376H40V70.6251H52.6562C58.2564 70.6251 62.8125 66.069 62.8125 60.4688C62.8125 60.153 62.7959 59.8412 62.7677 59.5327Z" fill="#E6A578"/>
</svg>
