<svg xmlns="http://www.w3.org/2000/svg" xmlns:xlink="http://www.w3.org/1999/xlink" width="391" zoomAndPan="magnify" viewBox="0 0 293.25 70.499998" height="94" preserveAspectRatio="xMidYMid meet" version="1.0"><defs><g/></defs><g fill="#2791f4" fill-opacity="1"><g transform="translate(58.457334, 27.554579)"><g><path d="M 1.984375 0 C 1.859375 0 1.757812 -0.0351562 1.6875 -0.109375 C 1.613281 -0.191406 1.578125 -0.296875 1.578125 -0.421875 L 1.578125 -12.234375 C 1.578125 -12.367188 1.613281 -12.472656 1.6875 -12.546875 C 1.757812 -12.628906 1.859375 -12.671875 1.984375 -12.671875 L 6.09375 -12.671875 C 7.34375 -12.671875 8.34375 -12.484375 9.09375 -12.109375 C 9.851562 -11.734375 10.410156 -11.179688 10.765625 -10.453125 C 11.117188 -9.722656 11.300781 -8.828125 11.3125 -7.765625 C 11.320312 -7.222656 11.328125 -6.742188 11.328125 -6.328125 C 11.328125 -5.921875 11.320312 -5.453125 11.3125 -4.921875 C 11.28125 -3.804688 11.09375 -2.882812 10.75 -2.15625 C 10.40625 -1.425781 9.863281 -0.882812 9.125 -0.53125 C 8.382812 -0.175781 7.40625 0 6.1875 0 Z M 3.34375 -1.53125 L 6.09375 -1.53125 C 6.925781 -1.53125 7.585938 -1.644531 8.078125 -1.875 C 8.578125 -2.101562 8.9375 -2.472656 9.15625 -2.984375 C 9.382812 -3.492188 9.503906 -4.164062 9.515625 -5 C 9.535156 -5.351562 9.546875 -5.664062 9.546875 -5.9375 C 9.546875 -6.207031 9.546875 -6.476562 9.546875 -6.75 C 9.546875 -7.03125 9.535156 -7.34375 9.515625 -7.6875 C 9.492188 -8.851562 9.21875 -9.71875 8.6875 -10.28125 C 8.15625 -10.84375 7.257812 -11.125 6 -11.125 L 3.34375 -11.125 Z M 3.34375 -1.53125 "/></g></g></g><g fill="#2791f4" fill-opacity="1"><g transform="translate(70.924263, 27.554579)"><g><path d="M 5.1875 0.1875 C 4.269531 0.1875 3.503906 0.0078125 2.890625 -0.34375 C 2.273438 -0.695312 1.804688 -1.179688 1.484375 -1.796875 C 1.160156 -2.421875 0.976562 -3.128906 0.9375 -3.921875 C 0.925781 -4.128906 0.921875 -4.390625 0.921875 -4.703125 C 0.921875 -5.023438 0.925781 -5.285156 0.9375 -5.484375 C 0.976562 -6.285156 1.160156 -6.992188 1.484375 -7.609375 C 1.816406 -8.234375 2.289062 -8.71875 2.90625 -9.0625 C 3.519531 -9.414062 4.28125 -9.59375 5.1875 -9.59375 C 6.09375 -9.59375 6.851562 -9.414062 7.46875 -9.0625 C 8.082031 -8.71875 8.554688 -8.234375 8.890625 -7.609375 C 9.222656 -6.992188 9.40625 -6.285156 9.4375 -5.484375 C 9.457031 -5.285156 9.46875 -5.023438 9.46875 -4.703125 C 9.46875 -4.390625 9.457031 -4.128906 9.4375 -3.921875 C 9.40625 -3.128906 9.222656 -2.421875 8.890625 -1.796875 C 8.566406 -1.179688 8.097656 -0.695312 7.484375 -0.34375 C 6.867188 0.0078125 6.101562 0.1875 5.1875 0.1875 Z M 5.1875 -1.21875 C 5.9375 -1.21875 6.535156 -1.453125 6.984375 -1.921875 C 7.429688 -2.398438 7.671875 -3.097656 7.703125 -4.015625 C 7.710938 -4.191406 7.71875 -4.421875 7.71875 -4.703125 C 7.71875 -4.984375 7.710938 -5.210938 7.703125 -5.390625 C 7.671875 -6.304688 7.429688 -7.003906 6.984375 -7.484375 C 6.535156 -7.960938 5.9375 -8.203125 5.1875 -8.203125 C 4.445312 -8.203125 3.847656 -7.960938 3.390625 -7.484375 C 2.941406 -7.003906 2.703125 -6.304688 2.671875 -5.390625 C 2.660156 -5.210938 2.65625 -4.984375 2.65625 -4.703125 C 2.65625 -4.421875 2.660156 -4.191406 2.671875 -4.015625 C 2.703125 -3.097656 2.941406 -2.398438 3.390625 -1.921875 C 3.847656 -1.453125 4.445312 -1.21875 5.1875 -1.21875 Z M 5.1875 -1.21875 "/></g></g></g><g fill="#2791f4" fill-opacity="1"><g transform="translate(81.310353, 27.554579)"><g><path d="M 1.75 0 C 1.632812 0 1.535156 -0.0351562 1.453125 -0.109375 C 1.378906 -0.191406 1.34375 -0.296875 1.34375 -0.421875 L 1.34375 -9 C 1.34375 -9.113281 1.378906 -9.207031 1.453125 -9.28125 C 1.535156 -9.363281 1.632812 -9.40625 1.75 -9.40625 L 2.609375 -9.40625 C 2.722656 -9.40625 2.816406 -9.363281 2.890625 -9.28125 C 2.972656 -9.207031 3.015625 -9.113281 3.015625 -9 L 3.015625 -8.203125 C 3.328125 -8.609375 3.722656 -8.941406 4.203125 -9.203125 C 4.679688 -9.460938 5.296875 -9.59375 6.046875 -9.59375 C 6.828125 -9.59375 7.488281 -9.421875 8.03125 -9.078125 C 8.582031 -8.734375 9 -8.253906 9.28125 -7.640625 C 9.570312 -7.035156 9.71875 -6.328125 9.71875 -5.515625 L 9.71875 -0.421875 C 9.71875 -0.296875 9.675781 -0.191406 9.59375 -0.109375 C 9.519531 -0.0351562 9.421875 0 9.296875 0 L 8.390625 0 C 8.273438 0 8.175781 -0.0351562 8.09375 -0.109375 C 8.019531 -0.191406 7.984375 -0.296875 7.984375 -0.421875 L 7.984375 -5.421875 C 7.984375 -6.265625 7.773438 -6.925781 7.359375 -7.40625 C 6.953125 -7.882812 6.351562 -8.125 5.5625 -8.125 C 4.8125 -8.125 4.207031 -7.882812 3.75 -7.40625 C 3.300781 -6.925781 3.078125 -6.265625 3.078125 -5.421875 L 3.078125 -0.421875 C 3.078125 -0.296875 3.035156 -0.191406 2.953125 -0.109375 C 2.878906 -0.0351562 2.78125 0 2.65625 0 Z M 1.75 0 "/></g></g></g><g fill="#2791f4" fill-opacity="1"><g transform="translate(92.275459, 27.554579)"><g><path d="M 5.109375 0.1875 C 3.847656 0.1875 2.847656 -0.191406 2.109375 -0.953125 C 1.378906 -1.722656 0.976562 -2.773438 0.90625 -4.109375 C 0.894531 -4.265625 0.890625 -4.460938 0.890625 -4.703125 C 0.890625 -4.953125 0.894531 -5.15625 0.90625 -5.3125 C 0.957031 -6.175781 1.15625 -6.929688 1.5 -7.578125 C 1.851562 -8.222656 2.332031 -8.71875 2.9375 -9.0625 C 3.550781 -9.414062 4.265625 -9.59375 5.078125 -9.59375 C 5.992188 -9.59375 6.765625 -9.398438 7.390625 -9.015625 C 8.015625 -8.628906 8.488281 -8.078125 8.8125 -7.359375 C 9.132812 -6.648438 9.296875 -5.820312 9.296875 -4.875 L 9.296875 -4.5625 C 9.296875 -4.425781 9.253906 -4.320312 9.171875 -4.25 C 9.097656 -4.175781 9.003906 -4.140625 8.890625 -4.140625 L 2.625 -4.140625 C 2.625 -4.128906 2.625 -4.101562 2.625 -4.0625 C 2.625 -4.03125 2.625 -4.003906 2.625 -3.984375 C 2.644531 -3.484375 2.75 -3.019531 2.9375 -2.59375 C 3.132812 -2.164062 3.414062 -1.816406 3.78125 -1.546875 C 4.15625 -1.285156 4.585938 -1.15625 5.078125 -1.15625 C 5.515625 -1.15625 5.878906 -1.222656 6.171875 -1.359375 C 6.460938 -1.492188 6.695312 -1.640625 6.875 -1.796875 C 7.050781 -1.960938 7.171875 -2.09375 7.234375 -2.1875 C 7.347656 -2.332031 7.429688 -2.421875 7.484375 -2.453125 C 7.546875 -2.484375 7.644531 -2.5 7.78125 -2.5 L 8.671875 -2.5 C 8.773438 -2.5 8.863281 -2.460938 8.9375 -2.390625 C 9.019531 -2.328125 9.054688 -2.234375 9.046875 -2.109375 C 9.035156 -1.929688 8.9375 -1.710938 8.75 -1.453125 C 8.570312 -1.191406 8.316406 -0.9375 7.984375 -0.6875 C 7.648438 -0.4375 7.238281 -0.226562 6.75 -0.0625 C 6.269531 0.101562 5.722656 0.1875 5.109375 0.1875 Z M 2.625 -5.390625 L 7.578125 -5.390625 L 7.578125 -5.453125 C 7.578125 -5.992188 7.476562 -6.472656 7.28125 -6.890625 C 7.082031 -7.316406 6.796875 -7.648438 6.421875 -7.890625 C 6.046875 -8.140625 5.597656 -8.265625 5.078125 -8.265625 C 4.566406 -8.265625 4.125 -8.140625 3.75 -7.890625 C 3.382812 -7.648438 3.101562 -7.316406 2.90625 -6.890625 C 2.71875 -6.472656 2.625 -5.992188 2.625 -5.453125 Z M 2.625 -5.390625 "/></g></g></g><g fill="#2791f4" fill-opacity="1"><g transform="translate(102.408234, 27.554579)"><g><path d="M 5.1875 3.984375 C 4.375 3.984375 3.703125 3.875 3.171875 3.65625 C 2.648438 3.4375 2.238281 3.171875 1.9375 2.859375 C 1.644531 2.554688 1.4375 2.25 1.3125 1.9375 C 1.1875 1.632812 1.117188 1.394531 1.109375 1.21875 C 1.085938 1.09375 1.125 0.988281 1.21875 0.90625 C 1.3125 0.820312 1.410156 0.78125 1.515625 0.78125 L 2.390625 0.78125 C 2.492188 0.78125 2.582031 0.800781 2.65625 0.84375 C 2.726562 0.894531 2.789062 1 2.84375 1.15625 C 2.914062 1.332031 3.023438 1.53125 3.171875 1.75 C 3.316406 1.976562 3.535156 2.175781 3.828125 2.34375 C 4.128906 2.507812 4.554688 2.59375 5.109375 2.59375 C 5.671875 2.59375 6.144531 2.507812 6.53125 2.34375 C 6.914062 2.1875 7.207031 1.921875 7.40625 1.546875 C 7.601562 1.179688 7.703125 0.664062 7.703125 0 L 7.703125 -1.234375 C 7.421875 -0.859375 7.039062 -0.546875 6.5625 -0.296875 C 6.09375 -0.046875 5.503906 0.078125 4.796875 0.078125 C 4.117188 0.078125 3.535156 -0.0390625 3.046875 -0.28125 C 2.566406 -0.519531 2.171875 -0.835938 1.859375 -1.234375 C 1.554688 -1.640625 1.328125 -2.101562 1.171875 -2.625 C 1.023438 -3.144531 0.941406 -3.6875 0.921875 -4.25 C 0.910156 -4.59375 0.910156 -4.925781 0.921875 -5.25 C 0.941406 -5.8125 1.023438 -6.351562 1.171875 -6.875 C 1.328125 -7.394531 1.554688 -7.859375 1.859375 -8.265625 C 2.171875 -8.679688 2.566406 -9.003906 3.046875 -9.234375 C 3.535156 -9.472656 4.117188 -9.59375 4.796875 -9.59375 C 5.515625 -9.59375 6.113281 -9.457031 6.59375 -9.1875 C 7.070312 -8.925781 7.460938 -8.597656 7.765625 -8.203125 L 7.765625 -8.96875 C 7.765625 -9.09375 7.800781 -9.195312 7.875 -9.28125 C 7.957031 -9.363281 8.054688 -9.40625 8.171875 -9.40625 L 9.015625 -9.40625 C 9.128906 -9.40625 9.226562 -9.363281 9.3125 -9.28125 C 9.394531 -9.195312 9.4375 -9.09375 9.4375 -8.96875 L 9.4375 -0.203125 C 9.4375 0.609375 9.300781 1.328125 9.03125 1.953125 C 8.757812 2.578125 8.3125 3.070312 7.6875 3.4375 C 7.070312 3.800781 6.238281 3.984375 5.1875 3.984375 Z M 5.15625 -1.375 C 5.757812 -1.375 6.242188 -1.507812 6.609375 -1.78125 C 6.984375 -2.0625 7.253906 -2.410156 7.421875 -2.828125 C 7.597656 -3.253906 7.691406 -3.6875 7.703125 -4.125 C 7.710938 -4.289062 7.71875 -4.5 7.71875 -4.75 C 7.71875 -5 7.710938 -5.207031 7.703125 -5.375 C 7.691406 -5.8125 7.597656 -6.238281 7.421875 -6.65625 C 7.253906 -7.082031 6.984375 -7.429688 6.609375 -7.703125 C 6.242188 -7.984375 5.757812 -8.125 5.15625 -8.125 C 4.550781 -8.125 4.066406 -7.988281 3.703125 -7.71875 C 3.347656 -7.445312 3.09375 -7.085938 2.9375 -6.640625 C 2.78125 -6.203125 2.6875 -5.734375 2.65625 -5.234375 C 2.644531 -4.921875 2.644531 -4.597656 2.65625 -4.265625 C 2.6875 -3.765625 2.78125 -3.289062 2.9375 -2.84375 C 3.09375 -2.40625 3.347656 -2.050781 3.703125 -1.78125 C 4.066406 -1.507812 4.550781 -1.375 5.15625 -1.375 Z M 5.15625 -1.375 "/></g></g></g><g fill="#2791f4" fill-opacity="1"><g transform="translate(113.210501, 27.554579)"><g><path d="M 3.96875 0.1875 C 3.363281 0.1875 2.8125 0.0664062 2.3125 -0.171875 C 1.820312 -0.421875 1.425781 -0.75 1.125 -1.15625 C 0.820312 -1.5625 0.671875 -2.023438 0.671875 -2.546875 C 0.671875 -3.378906 1.007812 -4.039062 1.6875 -4.53125 C 2.363281 -5.03125 3.242188 -5.359375 4.328125 -5.515625 L 7.015625 -5.90625 L 7.015625 -6.421875 C 7.015625 -7.003906 6.847656 -7.457031 6.515625 -7.78125 C 6.191406 -8.101562 5.65625 -8.265625 4.90625 -8.265625 C 4.375 -8.265625 3.9375 -8.15625 3.59375 -7.9375 C 3.257812 -7.726562 3.023438 -7.453125 2.890625 -7.109375 C 2.816406 -6.929688 2.691406 -6.84375 2.515625 -6.84375 L 1.703125 -6.84375 C 1.566406 -6.84375 1.460938 -6.878906 1.390625 -6.953125 C 1.328125 -7.035156 1.296875 -7.128906 1.296875 -7.234375 C 1.296875 -7.421875 1.363281 -7.644531 1.5 -7.90625 C 1.644531 -8.175781 1.863281 -8.4375 2.15625 -8.6875 C 2.445312 -8.9375 2.816406 -9.148438 3.265625 -9.328125 C 3.710938 -9.503906 4.265625 -9.59375 4.921875 -9.59375 C 5.640625 -9.59375 6.242188 -9.5 6.734375 -9.3125 C 7.234375 -9.125 7.625 -8.875 7.90625 -8.5625 C 8.195312 -8.25 8.40625 -7.890625 8.53125 -7.484375 C 8.65625 -7.085938 8.71875 -6.6875 8.71875 -6.28125 L 8.71875 -0.421875 C 8.71875 -0.296875 8.675781 -0.191406 8.59375 -0.109375 C 8.519531 -0.0351562 8.425781 0 8.3125 0 L 7.46875 0 C 7.34375 0 7.242188 -0.0351562 7.171875 -0.109375 C 7.097656 -0.191406 7.0625 -0.296875 7.0625 -0.421875 L 7.0625 -1.1875 C 6.90625 -0.976562 6.691406 -0.765625 6.421875 -0.546875 C 6.160156 -0.335938 5.828125 -0.160156 5.421875 -0.015625 C 5.023438 0.117188 4.539062 0.1875 3.96875 0.1875 Z M 4.34375 -1.171875 C 4.832031 -1.171875 5.28125 -1.273438 5.6875 -1.484375 C 6.101562 -1.703125 6.425781 -2.03125 6.65625 -2.46875 C 6.894531 -2.914062 7.015625 -3.476562 7.015625 -4.15625 L 7.015625 -4.671875 L 4.921875 -4.359375 C 4.066406 -4.234375 3.421875 -4.03125 2.984375 -3.75 C 2.546875 -3.46875 2.328125 -3.109375 2.328125 -2.671875 C 2.328125 -2.335938 2.425781 -2.054688 2.625 -1.828125 C 2.832031 -1.609375 3.085938 -1.441406 3.390625 -1.328125 C 3.703125 -1.222656 4.019531 -1.171875 4.34375 -1.171875 Z M 4.34375 -1.171875 "/></g></g></g><g fill="#2791f4" fill-opacity="1"><g transform="translate(123.198528, 27.554579)"><g><path d="M 1.765625 0 C 1.648438 0 1.550781 -0.0351562 1.46875 -0.109375 C 1.394531 -0.191406 1.359375 -0.296875 1.359375 -0.421875 L 1.359375 -12.4375 C 1.359375 -12.550781 1.394531 -12.644531 1.46875 -12.71875 C 1.550781 -12.800781 1.648438 -12.84375 1.765625 -12.84375 L 2.625 -12.84375 C 2.757812 -12.84375 2.863281 -12.800781 2.9375 -12.71875 C 3.007812 -12.644531 3.046875 -12.550781 3.046875 -12.4375 L 3.046875 -0.421875 C 3.046875 -0.296875 3.007812 -0.191406 2.9375 -0.109375 C 2.863281 -0.0351562 2.757812 0 2.625 0 Z M 1.765625 0 "/></g></g></g><g fill="#2791f4" fill-opacity="1"><g transform="translate(127.595429, 27.554579)"><g/></g></g><g fill="#2791f4" fill-opacity="1"><g transform="translate(132.028523, 27.554579)"><g><path d="M 0.71875 0 C 0.625 0 0.539062 -0.0351562 0.46875 -0.109375 C 0.394531 -0.179688 0.359375 -0.265625 0.359375 -0.359375 C 0.359375 -0.421875 0.363281 -0.488281 0.375 -0.5625 L 4.875 -12.265625 C 4.914062 -12.390625 4.976562 -12.488281 5.0625 -12.5625 C 5.144531 -12.632812 5.273438 -12.671875 5.453125 -12.671875 L 6.671875 -12.671875 C 6.847656 -12.671875 6.976562 -12.632812 7.0625 -12.5625 C 7.144531 -12.488281 7.207031 -12.390625 7.25 -12.265625 L 11.71875 -0.5625 C 11.75 -0.488281 11.765625 -0.421875 11.765625 -0.359375 C 11.765625 -0.265625 11.726562 -0.179688 11.65625 -0.109375 C 11.582031 -0.0351562 11.5 0 11.40625 0 L 10.46875 0 C 10.332031 0 10.226562 -0.0351562 10.15625 -0.109375 C 10.09375 -0.179688 10.050781 -0.25 10.03125 -0.3125 L 9.03125 -2.875 L 3.09375 -2.875 L 2.09375 -0.3125 C 2.082031 -0.25 2.039062 -0.179688 1.96875 -0.109375 C 1.894531 -0.0351562 1.785156 0 1.640625 0 Z M 3.625 -4.4375 L 8.5 -4.4375 L 6.0625 -10.859375 Z M 3.625 -4.4375 "/></g></g></g><g fill="#2791f4" fill-opacity="1"><g transform="translate(144.15166, 27.554579)"><g><path d="M 5.140625 0.1875 C 4.285156 0.1875 3.546875 0.0195312 2.921875 -0.3125 C 2.296875 -0.644531 1.816406 -1.117188 1.484375 -1.734375 C 1.148438 -2.359375 0.96875 -3.109375 0.9375 -3.984375 C 0.925781 -4.160156 0.921875 -4.398438 0.921875 -4.703125 C 0.921875 -5.003906 0.925781 -5.242188 0.9375 -5.421875 C 0.96875 -6.296875 1.148438 -7.039062 1.484375 -7.65625 C 1.816406 -8.28125 2.296875 -8.757812 2.921875 -9.09375 C 3.546875 -9.425781 4.285156 -9.59375 5.140625 -9.59375 C 5.835938 -9.59375 6.4375 -9.492188 6.9375 -9.296875 C 7.4375 -9.109375 7.847656 -8.863281 8.171875 -8.5625 C 8.503906 -8.257812 8.75 -7.929688 8.90625 -7.578125 C 9.070312 -7.234375 9.160156 -6.90625 9.171875 -6.59375 C 9.179688 -6.46875 9.144531 -6.367188 9.0625 -6.296875 C 8.976562 -6.222656 8.875 -6.1875 8.75 -6.1875 L 7.890625 -6.1875 C 7.765625 -6.1875 7.671875 -6.210938 7.609375 -6.265625 C 7.554688 -6.316406 7.5 -6.410156 7.4375 -6.546875 C 7.21875 -7.140625 6.921875 -7.554688 6.546875 -7.796875 C 6.171875 -8.035156 5.707031 -8.15625 5.15625 -8.15625 C 4.4375 -8.15625 3.847656 -7.929688 3.390625 -7.484375 C 2.941406 -7.046875 2.695312 -6.332031 2.65625 -5.34375 C 2.644531 -4.90625 2.644531 -4.484375 2.65625 -4.078125 C 2.695312 -3.066406 2.941406 -2.34375 3.390625 -1.90625 C 3.847656 -1.46875 4.4375 -1.25 5.15625 -1.25 C 5.707031 -1.25 6.171875 -1.367188 6.546875 -1.609375 C 6.921875 -1.847656 7.21875 -2.265625 7.4375 -2.859375 C 7.5 -2.992188 7.554688 -3.085938 7.609375 -3.140625 C 7.671875 -3.203125 7.765625 -3.234375 7.890625 -3.234375 L 8.75 -3.234375 C 8.875 -3.234375 8.976562 -3.191406 9.0625 -3.109375 C 9.144531 -3.035156 9.179688 -2.941406 9.171875 -2.828125 C 9.160156 -2.566406 9.101562 -2.300781 9 -2.03125 C 8.90625 -1.769531 8.753906 -1.503906 8.546875 -1.234375 C 8.335938 -0.960938 8.078125 -0.722656 7.765625 -0.515625 C 7.453125 -0.304688 7.078125 -0.132812 6.640625 0 C 6.203125 0.125 5.703125 0.1875 5.140625 0.1875 Z M 5.140625 0.1875 "/></g></g></g><g fill="#2791f4" fill-opacity="1"><g transform="translate(154.139687, 27.554579)"><g><path d="M 5.140625 0.1875 C 4.285156 0.1875 3.546875 0.0195312 2.921875 -0.3125 C 2.296875 -0.644531 1.816406 -1.117188 1.484375 -1.734375 C 1.148438 -2.359375 0.96875 -3.109375 0.9375 -3.984375 C 0.925781 -4.160156 0.921875 -4.398438 0.921875 -4.703125 C 0.921875 -5.003906 0.925781 -5.242188 0.9375 -5.421875 C 0.96875 -6.296875 1.148438 -7.039062 1.484375 -7.65625 C 1.816406 -8.28125 2.296875 -8.757812 2.921875 -9.09375 C 3.546875 -9.425781 4.285156 -9.59375 5.140625 -9.59375 C 5.835938 -9.59375 6.4375 -9.492188 6.9375 -9.296875 C 7.4375 -9.109375 7.847656 -8.863281 8.171875 -8.5625 C 8.503906 -8.257812 8.75 -7.929688 8.90625 -7.578125 C 9.070312 -7.234375 9.160156 -6.90625 9.171875 -6.59375 C 9.179688 -6.46875 9.144531 -6.367188 9.0625 -6.296875 C 8.976562 -6.222656 8.875 -6.1875 8.75 -6.1875 L 7.890625 -6.1875 C 7.765625 -6.1875 7.671875 -6.210938 7.609375 -6.265625 C 7.554688 -6.316406 7.5 -6.410156 7.4375 -6.546875 C 7.21875 -7.140625 6.921875 -7.554688 6.546875 -7.796875 C 6.171875 -8.035156 5.707031 -8.15625 5.15625 -8.15625 C 4.4375 -8.15625 3.847656 -7.929688 3.390625 -7.484375 C 2.941406 -7.046875 2.695312 -6.332031 2.65625 -5.34375 C 2.644531 -4.90625 2.644531 -4.484375 2.65625 -4.078125 C 2.695312 -3.066406 2.941406 -2.34375 3.390625 -1.90625 C 3.847656 -1.46875 4.4375 -1.25 5.15625 -1.25 C 5.707031 -1.25 6.171875 -1.367188 6.546875 -1.609375 C 6.921875 -1.847656 7.21875 -2.265625 7.4375 -2.859375 C 7.5 -2.992188 7.554688 -3.085938 7.609375 -3.140625 C 7.671875 -3.203125 7.765625 -3.234375 7.890625 -3.234375 L 8.75 -3.234375 C 8.875 -3.234375 8.976562 -3.191406 9.0625 -3.109375 C 9.144531 -3.035156 9.179688 -2.941406 9.171875 -2.828125 C 9.160156 -2.566406 9.101562 -2.300781 9 -2.03125 C 8.90625 -1.769531 8.753906 -1.503906 8.546875 -1.234375 C 8.335938 -0.960938 8.078125 -0.722656 7.765625 -0.515625 C 7.453125 -0.304688 7.078125 -0.132812 6.640625 0 C 6.203125 0.125 5.703125 0.1875 5.140625 0.1875 Z M 5.140625 0.1875 "/></g></g></g><g fill="#2791f4" fill-opacity="1"><g transform="translate(164.127714, 27.554579)"><g><path d="M 5.1875 0.1875 C 4.269531 0.1875 3.503906 0.0078125 2.890625 -0.34375 C 2.273438 -0.695312 1.804688 -1.179688 1.484375 -1.796875 C 1.160156 -2.421875 0.976562 -3.128906 0.9375 -3.921875 C 0.925781 -4.128906 0.921875 -4.390625 0.921875 -4.703125 C 0.921875 -5.023438 0.925781 -5.285156 0.9375 -5.484375 C 0.976562 -6.285156 1.160156 -6.992188 1.484375 -7.609375 C 1.816406 -8.234375 2.289062 -8.71875 2.90625 -9.0625 C 3.519531 -9.414062 4.28125 -9.59375 5.1875 -9.59375 C 6.09375 -9.59375 6.851562 -9.414062 7.46875 -9.0625 C 8.082031 -8.71875 8.554688 -8.234375 8.890625 -7.609375 C 9.222656 -6.992188 9.40625 -6.285156 9.4375 -5.484375 C 9.457031 -5.285156 9.46875 -5.023438 9.46875 -4.703125 C 9.46875 -4.390625 9.457031 -4.128906 9.4375 -3.921875 C 9.40625 -3.128906 9.222656 -2.421875 8.890625 -1.796875 C 8.566406 -1.179688 8.097656 -0.695312 7.484375 -0.34375 C 6.867188 0.0078125 6.101562 0.1875 5.1875 0.1875 Z M 5.1875 -1.21875 C 5.9375 -1.21875 6.535156 -1.453125 6.984375 -1.921875 C 7.429688 -2.398438 7.671875 -3.097656 7.703125 -4.015625 C 7.710938 -4.191406 7.71875 -4.421875 7.71875 -4.703125 C 7.71875 -4.984375 7.710938 -5.210938 7.703125 -5.390625 C 7.671875 -6.304688 7.429688 -7.003906 6.984375 -7.484375 C 6.535156 -7.960938 5.9375 -8.203125 5.1875 -8.203125 C 4.445312 -8.203125 3.847656 -7.960938 3.390625 -7.484375 C 2.941406 -7.003906 2.703125 -6.304688 2.671875 -5.390625 C 2.660156 -5.210938 2.65625 -4.984375 2.65625 -4.703125 C 2.65625 -4.421875 2.660156 -4.191406 2.671875 -4.015625 C 2.703125 -3.097656 2.941406 -2.398438 3.390625 -1.921875 C 3.847656 -1.453125 4.445312 -1.21875 5.1875 -1.21875 Z M 5.1875 -1.21875 "/></g></g></g><g fill="#2791f4" fill-opacity="1"><g transform="translate(174.513804, 27.554579)"><g><path d="M 4.84375 0.1875 C 4.070312 0.1875 3.414062 0.015625 2.875 -0.328125 C 2.34375 -0.671875 1.9375 -1.148438 1.65625 -1.765625 C 1.382812 -2.390625 1.25 -3.097656 1.25 -3.890625 L 1.25 -9 C 1.25 -9.113281 1.285156 -9.207031 1.359375 -9.28125 C 1.441406 -9.363281 1.546875 -9.40625 1.671875 -9.40625 L 2.5625 -9.40625 C 2.6875 -9.40625 2.785156 -9.363281 2.859375 -9.28125 C 2.941406 -9.207031 2.984375 -9.113281 2.984375 -9 L 2.984375 -3.984375 C 2.984375 -2.179688 3.769531 -1.28125 5.34375 -1.28125 C 6.082031 -1.28125 6.675781 -1.519531 7.125 -2 C 7.582031 -2.476562 7.8125 -3.140625 7.8125 -3.984375 L 7.8125 -9 C 7.8125 -9.113281 7.847656 -9.207031 7.921875 -9.28125 C 8.003906 -9.363281 8.109375 -9.40625 8.234375 -9.40625 L 9.140625 -9.40625 C 9.253906 -9.40625 9.347656 -9.363281 9.421875 -9.28125 C 9.492188 -9.207031 9.53125 -9.113281 9.53125 -9 L 9.53125 -0.421875 C 9.53125 -0.296875 9.492188 -0.191406 9.421875 -0.109375 C 9.347656 -0.0351562 9.253906 0 9.140625 0 L 8.28125 0 C 8.164062 0 8.066406 -0.0351562 7.984375 -0.109375 C 7.910156 -0.191406 7.875 -0.296875 7.875 -0.421875 L 7.875 -1.21875 C 7.539062 -0.789062 7.140625 -0.445312 6.671875 -0.1875 C 6.210938 0.0625 5.601562 0.1875 4.84375 0.1875 Z M 4.84375 0.1875 "/></g></g></g><g fill="#2791f4" fill-opacity="1"><g transform="translate(185.406536, 27.554579)"><g><path d="M 1.75 0 C 1.632812 0 1.535156 -0.0351562 1.453125 -0.109375 C 1.378906 -0.191406 1.34375 -0.296875 1.34375 -0.421875 L 1.34375 -9 C 1.34375 -9.113281 1.378906 -9.207031 1.453125 -9.28125 C 1.535156 -9.363281 1.632812 -9.40625 1.75 -9.40625 L 2.609375 -9.40625 C 2.722656 -9.40625 2.816406 -9.363281 2.890625 -9.28125 C 2.972656 -9.207031 3.015625 -9.113281 3.015625 -9 L 3.015625 -8.203125 C 3.328125 -8.609375 3.722656 -8.941406 4.203125 -9.203125 C 4.679688 -9.460938 5.296875 -9.59375 6.046875 -9.59375 C 6.828125 -9.59375 7.488281 -9.421875 8.03125 -9.078125 C 8.582031 -8.734375 9 -8.253906 9.28125 -7.640625 C 9.570312 -7.035156 9.71875 -6.328125 9.71875 -5.515625 L 9.71875 -0.421875 C 9.71875 -0.296875 9.675781 -0.191406 9.59375 -0.109375 C 9.519531 -0.0351562 9.421875 0 9.296875 0 L 8.390625 0 C 8.273438 0 8.175781 -0.0351562 8.09375 -0.109375 C 8.019531 -0.191406 7.984375 -0.296875 7.984375 -0.421875 L 7.984375 -5.421875 C 7.984375 -6.265625 7.773438 -6.925781 7.359375 -7.40625 C 6.953125 -7.882812 6.351562 -8.125 5.5625 -8.125 C 4.8125 -8.125 4.207031 -7.882812 3.75 -7.40625 C 3.300781 -6.925781 3.078125 -6.265625 3.078125 -5.421875 L 3.078125 -0.421875 C 3.078125 -0.296875 3.035156 -0.191406 2.953125 -0.109375 C 2.878906 -0.0351562 2.78125 0 2.65625 0 Z M 1.75 0 "/></g></g></g><g fill="#2791f4" fill-opacity="1"><g transform="translate(196.371642, 27.554579)"><g><path d="M 5.015625 0 C 4.335938 0 3.785156 -0.128906 3.359375 -0.390625 C 2.941406 -0.648438 2.632812 -1.015625 2.4375 -1.484375 C 2.25 -1.960938 2.15625 -2.53125 2.15625 -3.1875 L 2.15625 -7.96875 L 0.734375 -7.96875 C 0.617188 -7.96875 0.519531 -8.003906 0.4375 -8.078125 C 0.363281 -8.160156 0.328125 -8.257812 0.328125 -8.375 L 0.328125 -9 C 0.328125 -9.113281 0.363281 -9.207031 0.4375 -9.28125 C 0.519531 -9.363281 0.617188 -9.40625 0.734375 -9.40625 L 2.15625 -9.40625 L 2.15625 -12.4375 C 2.15625 -12.550781 2.191406 -12.644531 2.265625 -12.71875 C 2.347656 -12.800781 2.445312 -12.84375 2.5625 -12.84375 L 3.421875 -12.84375 C 3.535156 -12.84375 3.628906 -12.800781 3.703125 -12.71875 C 3.785156 -12.644531 3.828125 -12.550781 3.828125 -12.4375 L 3.828125 -9.40625 L 6.078125 -9.40625 C 6.210938 -9.40625 6.316406 -9.363281 6.390625 -9.28125 C 6.460938 -9.207031 6.5 -9.113281 6.5 -9 L 6.5 -8.375 C 6.5 -8.257812 6.460938 -8.160156 6.390625 -8.078125 C 6.316406 -8.003906 6.210938 -7.96875 6.078125 -7.96875 L 3.828125 -7.96875 L 3.828125 -3.3125 C 3.828125 -2.738281 3.925781 -2.289062 4.125 -1.96875 C 4.320312 -1.644531 4.664062 -1.484375 5.15625 -1.484375 L 6.265625 -1.484375 C 6.378906 -1.484375 6.472656 -1.441406 6.546875 -1.359375 C 6.628906 -1.285156 6.671875 -1.1875 6.671875 -1.0625 L 6.671875 -0.421875 C 6.671875 -0.296875 6.628906 -0.191406 6.546875 -0.109375 C 6.472656 -0.0351562 6.378906 0 6.265625 0 Z M 5.015625 0 "/></g></g></g><g fill="#2791f4" fill-opacity="1"><g transform="translate(203.446488, 27.554579)"><g><path d="M 1.75 0 C 1.632812 0 1.535156 -0.0351562 1.453125 -0.109375 C 1.378906 -0.191406 1.34375 -0.296875 1.34375 -0.421875 L 1.34375 -9 C 1.34375 -9.113281 1.378906 -9.207031 1.453125 -9.28125 C 1.535156 -9.363281 1.632812 -9.40625 1.75 -9.40625 L 2.625 -9.40625 C 2.738281 -9.40625 2.835938 -9.363281 2.921875 -9.28125 C 3.003906 -9.207031 3.046875 -9.113281 3.046875 -9 L 3.046875 -0.421875 C 3.046875 -0.296875 3.003906 -0.191406 2.921875 -0.109375 C 2.835938 -0.0351562 2.738281 0 2.625 0 Z M 1.609375 -11.15625 C 1.484375 -11.15625 1.378906 -11.195312 1.296875 -11.28125 C 1.222656 -11.363281 1.1875 -11.460938 1.1875 -11.578125 L 1.1875 -12.5625 C 1.1875 -12.675781 1.222656 -12.773438 1.296875 -12.859375 C 1.378906 -12.941406 1.484375 -12.984375 1.609375 -12.984375 L 2.75 -12.984375 C 2.875 -12.984375 2.976562 -12.941406 3.0625 -12.859375 C 3.144531 -12.773438 3.1875 -12.675781 3.1875 -12.5625 L 3.1875 -11.578125 C 3.1875 -11.460938 3.144531 -11.363281 3.0625 -11.28125 C 2.976562 -11.195312 2.875 -11.15625 2.75 -11.15625 Z M 1.609375 -11.15625 "/></g></g></g><g fill="#2791f4" fill-opacity="1"><g transform="translate(207.825299, 27.554579)"><g><path d="M 1.75 0 C 1.632812 0 1.535156 -0.0351562 1.453125 -0.109375 C 1.378906 -0.191406 1.34375 -0.296875 1.34375 -0.421875 L 1.34375 -9 C 1.34375 -9.113281 1.378906 -9.207031 1.453125 -9.28125 C 1.535156 -9.363281 1.632812 -9.40625 1.75 -9.40625 L 2.609375 -9.40625 C 2.722656 -9.40625 2.816406 -9.363281 2.890625 -9.28125 C 2.972656 -9.207031 3.015625 -9.113281 3.015625 -9 L 3.015625 -8.203125 C 3.328125 -8.609375 3.722656 -8.941406 4.203125 -9.203125 C 4.679688 -9.460938 5.296875 -9.59375 6.046875 -9.59375 C 6.828125 -9.59375 7.488281 -9.421875 8.03125 -9.078125 C 8.582031 -8.734375 9 -8.253906 9.28125 -7.640625 C 9.570312 -7.035156 9.71875 -6.328125 9.71875 -5.515625 L 9.71875 -0.421875 C 9.71875 -0.296875 9.675781 -0.191406 9.59375 -0.109375 C 9.519531 -0.0351562 9.421875 0 9.296875 0 L 8.390625 0 C 8.273438 0 8.175781 -0.0351562 8.09375 -0.109375 C 8.019531 -0.191406 7.984375 -0.296875 7.984375 -0.421875 L 7.984375 -5.421875 C 7.984375 -6.265625 7.773438 -6.925781 7.359375 -7.40625 C 6.953125 -7.882812 6.351562 -8.125 5.5625 -8.125 C 4.8125 -8.125 4.207031 -7.882812 3.75 -7.40625 C 3.300781 -6.925781 3.078125 -6.265625 3.078125 -5.421875 L 3.078125 -0.421875 C 3.078125 -0.296875 3.035156 -0.191406 2.953125 -0.109375 C 2.878906 -0.0351562 2.78125 0 2.65625 0 Z M 1.75 0 "/></g></g></g><g fill="#2791f4" fill-opacity="1"><g transform="translate(218.790405, 27.554579)"><g><path d="M 5.1875 3.984375 C 4.375 3.984375 3.703125 3.875 3.171875 3.65625 C 2.648438 3.4375 2.238281 3.171875 1.9375 2.859375 C 1.644531 2.554688 1.4375 2.25 1.3125 1.9375 C 1.1875 1.632812 1.117188 1.394531 1.109375 1.21875 C 1.085938 1.09375 1.125 0.988281 1.21875 0.90625 C 1.3125 0.820312 1.410156 0.78125 1.515625 0.78125 L 2.390625 0.78125 C 2.492188 0.78125 2.582031 0.800781 2.65625 0.84375 C 2.726562 0.894531 2.789062 1 2.84375 1.15625 C 2.914062 1.332031 3.023438 1.53125 3.171875 1.75 C 3.316406 1.976562 3.535156 2.175781 3.828125 2.34375 C 4.128906 2.507812 4.554688 2.59375 5.109375 2.59375 C 5.671875 2.59375 6.144531 2.507812 6.53125 2.34375 C 6.914062 2.1875 7.207031 1.921875 7.40625 1.546875 C 7.601562 1.179688 7.703125 0.664062 7.703125 0 L 7.703125 -1.234375 C 7.421875 -0.859375 7.039062 -0.546875 6.5625 -0.296875 C 6.09375 -0.046875 5.503906 0.078125 4.796875 0.078125 C 4.117188 0.078125 3.535156 -0.0390625 3.046875 -0.28125 C 2.566406 -0.519531 2.171875 -0.835938 1.859375 -1.234375 C 1.554688 -1.640625 1.328125 -2.101562 1.171875 -2.625 C 1.023438 -3.144531 0.941406 -3.6875 0.921875 -4.25 C 0.910156 -4.59375 0.910156 -4.925781 0.921875 -5.25 C 0.941406 -5.8125 1.023438 -6.351562 1.171875 -6.875 C 1.328125 -7.394531 1.554688 -7.859375 1.859375 -8.265625 C 2.171875 -8.679688 2.566406 -9.003906 3.046875 -9.234375 C 3.535156 -9.472656 4.117188 -9.59375 4.796875 -9.59375 C 5.515625 -9.59375 6.113281 -9.457031 6.59375 -9.1875 C 7.070312 -8.925781 7.460938 -8.597656 7.765625 -8.203125 L 7.765625 -8.96875 C 7.765625 -9.09375 7.800781 -9.195312 7.875 -9.28125 C 7.957031 -9.363281 8.054688 -9.40625 8.171875 -9.40625 L 9.015625 -9.40625 C 9.128906 -9.40625 9.226562 -9.363281 9.3125 -9.28125 C 9.394531 -9.195312 9.4375 -9.09375 9.4375 -8.96875 L 9.4375 -0.203125 C 9.4375 0.609375 9.300781 1.328125 9.03125 1.953125 C 8.757812 2.578125 8.3125 3.070312 7.6875 3.4375 C 7.070312 3.800781 6.238281 3.984375 5.1875 3.984375 Z M 5.15625 -1.375 C 5.757812 -1.375 6.242188 -1.507812 6.609375 -1.78125 C 6.984375 -2.0625 7.253906 -2.410156 7.421875 -2.828125 C 7.597656 -3.253906 7.691406 -3.6875 7.703125 -4.125 C 7.710938 -4.289062 7.71875 -4.5 7.71875 -4.75 C 7.71875 -5 7.710938 -5.207031 7.703125 -5.375 C 7.691406 -5.8125 7.597656 -6.238281 7.421875 -6.65625 C 7.253906 -7.082031 6.984375 -7.429688 6.609375 -7.703125 C 6.242188 -7.984375 5.757812 -8.125 5.15625 -8.125 C 4.550781 -8.125 4.066406 -7.988281 3.703125 -7.71875 C 3.347656 -7.445312 3.09375 -7.085938 2.9375 -6.640625 C 2.78125 -6.203125 2.6875 -5.734375 2.65625 -5.234375 C 2.644531 -4.921875 2.644531 -4.597656 2.65625 -4.265625 C 2.6875 -3.765625 2.78125 -3.289062 2.9375 -2.84375 C 3.09375 -2.40625 3.347656 -2.050781 3.703125 -1.78125 C 4.066406 -1.507812 4.550781 -1.375 5.15625 -1.375 Z M 5.15625 -1.375 "/></g></g></g><g fill="#2791f4" fill-opacity="1"><g transform="translate(229.602902, 27.554579)"><g/></g></g><g fill="#2791f4" fill-opacity="1"><g transform="translate(57.980249, 52.875)"><g><path d="M 5.1875 0.1875 C 4.375 0.1875 3.648438 0.0351562 3.015625 -0.265625 C 2.378906 -0.566406 1.882812 -0.984375 1.53125 -1.515625 C 1.1875 -2.054688 1.015625 -2.679688 1.015625 -3.390625 C 1.015625 -3.941406 1.128906 -4.425781 1.359375 -4.84375 C 1.597656 -5.257812 1.910156 -5.628906 2.296875 -5.953125 C 2.679688 -6.273438 3.101562 -6.570312 3.5625 -6.84375 C 3 -7.445312 2.597656 -7.976562 2.359375 -8.4375 C 2.128906 -8.894531 2.015625 -9.367188 2.015625 -9.859375 C 2.015625 -10.398438 2.148438 -10.894531 2.421875 -11.34375 C 2.703125 -11.789062 3.09375 -12.148438 3.59375 -12.421875 C 4.101562 -12.703125 4.703125 -12.84375 5.390625 -12.84375 C 6.066406 -12.84375 6.648438 -12.707031 7.140625 -12.4375 C 7.640625 -12.175781 8.023438 -11.820312 8.296875 -11.375 C 8.578125 -10.9375 8.71875 -10.4375 8.71875 -9.875 C 8.71875 -9.34375 8.59375 -8.878906 8.34375 -8.484375 C 8.09375 -8.085938 7.757812 -7.734375 7.34375 -7.421875 C 6.925781 -7.109375 6.46875 -6.8125 5.96875 -6.53125 L 9.046875 -3.515625 C 9.242188 -3.847656 9.425781 -4.238281 9.59375 -4.6875 C 9.769531 -5.132812 9.914062 -5.660156 10.03125 -6.265625 C 10.050781 -6.503906 10.175781 -6.625 10.40625 -6.625 L 11.203125 -6.625 C 11.316406 -6.625 11.40625 -6.585938 11.46875 -6.515625 C 11.539062 -6.441406 11.578125 -6.351562 11.578125 -6.25 C 11.566406 -5.976562 11.523438 -5.691406 11.453125 -5.390625 C 11.390625 -5.085938 11.296875 -4.765625 11.171875 -4.421875 C 11.046875 -4.085938 10.894531 -3.753906 10.71875 -3.421875 C 10.539062 -3.097656 10.335938 -2.773438 10.109375 -2.453125 L 11.953125 -0.609375 C 12.066406 -0.515625 12.125 -0.425781 12.125 -0.34375 C 12.125 -0.238281 12.09375 -0.15625 12.03125 -0.09375 C 11.96875 -0.03125 11.878906 0 11.765625 0 L 10.75 0 C 10.625 0 10.519531 -0.015625 10.4375 -0.046875 C 10.363281 -0.0859375 10.304688 -0.132812 10.265625 -0.1875 L 9.0625 -1.359375 C 8.59375 -0.898438 8.035156 -0.523438 7.390625 -0.234375 C 6.753906 0.046875 6.019531 0.1875 5.1875 0.1875 Z M 5.1875 -1.265625 C 5.675781 -1.265625 6.160156 -1.363281 6.640625 -1.5625 C 7.117188 -1.757812 7.566406 -2.066406 7.984375 -2.484375 L 4.59375 -5.765625 C 4.070312 -5.484375 3.617188 -5.15625 3.234375 -4.78125 C 2.859375 -4.414062 2.671875 -3.960938 2.671875 -3.421875 C 2.671875 -2.960938 2.789062 -2.570312 3.03125 -2.25 C 3.269531 -1.925781 3.582031 -1.679688 3.96875 -1.515625 C 4.351562 -1.347656 4.757812 -1.265625 5.1875 -1.265625 Z M 4.96875 -7.578125 C 5.363281 -7.796875 5.722656 -8.015625 6.046875 -8.234375 C 6.378906 -8.453125 6.644531 -8.691406 6.84375 -8.953125 C 7.039062 -9.222656 7.140625 -9.523438 7.140625 -9.859375 C 7.140625 -10.335938 6.972656 -10.722656 6.640625 -11.015625 C 6.304688 -11.304688 5.890625 -11.453125 5.390625 -11.453125 C 4.921875 -11.453125 4.507812 -11.3125 4.15625 -11.03125 C 3.8125 -10.75 3.640625 -10.351562 3.640625 -9.84375 C 3.640625 -9.632812 3.675781 -9.425781 3.75 -9.21875 C 3.820312 -9.007812 3.957031 -8.773438 4.15625 -8.515625 C 4.351562 -8.265625 4.625 -7.953125 4.96875 -7.578125 Z M 4.96875 -7.578125 "/></g></g></g><g fill="#2791f4" fill-opacity="1"><g transform="translate(70.537654, 52.875)"><g/></g></g><g fill="#2791f4" fill-opacity="1"><g transform="translate(74.970748, 52.875)"><g><path d="M 1.984375 0 C 1.859375 0 1.757812 -0.0351562 1.6875 -0.109375 C 1.613281 -0.191406 1.578125 -0.296875 1.578125 -0.421875 L 1.578125 -12.234375 C 1.578125 -12.367188 1.613281 -12.472656 1.6875 -12.546875 C 1.757812 -12.628906 1.859375 -12.671875 1.984375 -12.671875 L 6.953125 -12.671875 C 7.859375 -12.671875 8.597656 -12.519531 9.171875 -12.21875 C 9.742188 -11.925781 10.164062 -11.523438 10.4375 -11.015625 C 10.707031 -10.515625 10.84375 -9.945312 10.84375 -9.3125 C 10.84375 -8.820312 10.757812 -8.398438 10.59375 -8.046875 C 10.425781 -7.691406 10.222656 -7.398438 9.984375 -7.171875 C 9.742188 -6.953125 9.507812 -6.78125 9.28125 -6.65625 C 9.75 -6.425781 10.164062 -6.050781 10.53125 -5.53125 C 10.90625 -5.019531 11.09375 -4.394531 11.09375 -3.65625 C 11.09375 -2.988281 10.941406 -2.378906 10.640625 -1.828125 C 10.335938 -1.273438 9.882812 -0.832031 9.28125 -0.5 C 8.6875 -0.164062 7.957031 0 7.09375 0 Z M 3.34375 -1.46875 L 6.859375 -1.46875 C 7.628906 -1.46875 8.222656 -1.675781 8.640625 -2.09375 C 9.066406 -2.519531 9.28125 -3.039062 9.28125 -3.65625 C 9.28125 -4.289062 9.066406 -4.816406 8.640625 -5.234375 C 8.222656 -5.648438 7.628906 -5.859375 6.859375 -5.859375 L 3.34375 -5.859375 Z M 3.34375 -7.3125 L 6.671875 -7.3125 C 7.441406 -7.3125 8.023438 -7.488281 8.421875 -7.84375 C 8.828125 -8.195312 9.03125 -8.679688 9.03125 -9.296875 C 9.03125 -9.910156 8.828125 -10.378906 8.421875 -10.703125 C 8.023438 -11.035156 7.441406 -11.203125 6.671875 -11.203125 L 3.34375 -11.203125 Z M 3.34375 -7.3125 "/></g></g></g><g fill="#2791f4" fill-opacity="1"><g transform="translate(87.057704, 52.875)"><g><path d="M 4.84375 0.1875 C 4.070312 0.1875 3.414062 0.015625 2.875 -0.328125 C 2.34375 -0.671875 1.9375 -1.148438 1.65625 -1.765625 C 1.382812 -2.390625 1.25 -3.097656 1.25 -3.890625 L 1.25 -9 C 1.25 -9.113281 1.285156 -9.207031 1.359375 -9.28125 C 1.441406 -9.363281 1.546875 -9.40625 1.671875 -9.40625 L 2.5625 -9.40625 C 2.6875 -9.40625 2.785156 -9.363281 2.859375 -9.28125 C 2.941406 -9.207031 2.984375 -9.113281 2.984375 -9 L 2.984375 -3.984375 C 2.984375 -2.179688 3.769531 -1.28125 5.34375 -1.28125 C 6.082031 -1.28125 6.675781 -1.519531 7.125 -2 C 7.582031 -2.476562 7.8125 -3.140625 7.8125 -3.984375 L 7.8125 -9 C 7.8125 -9.113281 7.847656 -9.207031 7.921875 -9.28125 C 8.003906 -9.363281 8.109375 -9.40625 8.234375 -9.40625 L 9.140625 -9.40625 C 9.253906 -9.40625 9.347656 -9.363281 9.421875 -9.28125 C 9.492188 -9.207031 9.53125 -9.113281 9.53125 -9 L 9.53125 -0.421875 C 9.53125 -0.296875 9.492188 -0.191406 9.421875 -0.109375 C 9.347656 -0.0351562 9.253906 0 9.140625 0 L 8.28125 0 C 8.164062 0 8.066406 -0.0351562 7.984375 -0.109375 C 7.910156 -0.191406 7.875 -0.296875 7.875 -0.421875 L 7.875 -1.21875 C 7.539062 -0.789062 7.140625 -0.445312 6.671875 -0.1875 C 6.210938 0.0625 5.601562 0.1875 4.84375 0.1875 Z M 4.84375 0.1875 "/></g></g></g><g fill="#2791f4" fill-opacity="1"><g transform="translate(97.950436, 52.875)"><g><path d="M 4.59375 0.1875 C 3.914062 0.1875 3.335938 0.101562 2.859375 -0.0625 C 2.378906 -0.238281 1.988281 -0.445312 1.6875 -0.6875 C 1.382812 -0.925781 1.15625 -1.164062 1 -1.40625 C 0.851562 -1.644531 0.773438 -1.835938 0.765625 -1.984375 C 0.742188 -2.117188 0.78125 -2.222656 0.875 -2.296875 C 0.976562 -2.367188 1.078125 -2.40625 1.171875 -2.40625 L 1.984375 -2.40625 C 2.046875 -2.40625 2.097656 -2.394531 2.140625 -2.375 C 2.179688 -2.363281 2.238281 -2.3125 2.3125 -2.21875 C 2.46875 -2.050781 2.640625 -1.882812 2.828125 -1.71875 C 3.023438 -1.550781 3.265625 -1.410156 3.546875 -1.296875 C 3.835938 -1.191406 4.191406 -1.140625 4.609375 -1.140625 C 5.222656 -1.140625 5.726562 -1.253906 6.125 -1.484375 C 6.53125 -1.722656 6.734375 -2.070312 6.734375 -2.53125 C 6.734375 -2.832031 6.648438 -3.070312 6.484375 -3.25 C 6.328125 -3.4375 6.039062 -3.601562 5.625 -3.75 C 5.207031 -3.894531 4.632812 -4.046875 3.90625 -4.203125 C 3.1875 -4.367188 2.613281 -4.570312 2.1875 -4.8125 C 1.769531 -5.0625 1.46875 -5.359375 1.28125 -5.703125 C 1.101562 -6.046875 1.015625 -6.4375 1.015625 -6.875 C 1.015625 -7.320312 1.144531 -7.753906 1.40625 -8.171875 C 1.675781 -8.585938 2.066406 -8.925781 2.578125 -9.1875 C 3.085938 -9.457031 3.726562 -9.59375 4.5 -9.59375 C 5.132812 -9.59375 5.671875 -9.515625 6.109375 -9.359375 C 6.554688 -9.203125 6.925781 -9.003906 7.21875 -8.765625 C 7.507812 -8.523438 7.726562 -8.289062 7.875 -8.0625 C 8.019531 -7.832031 8.097656 -7.640625 8.109375 -7.484375 C 8.117188 -7.367188 8.082031 -7.269531 8 -7.1875 C 7.914062 -7.113281 7.816406 -7.078125 7.703125 -7.078125 L 6.953125 -7.078125 C 6.867188 -7.078125 6.796875 -7.09375 6.734375 -7.125 C 6.679688 -7.164062 6.632812 -7.207031 6.59375 -7.25 C 6.46875 -7.40625 6.320312 -7.5625 6.15625 -7.71875 C 6 -7.882812 5.789062 -8.015625 5.53125 -8.109375 C 5.269531 -8.210938 4.925781 -8.265625 4.5 -8.265625 C 3.894531 -8.265625 3.441406 -8.140625 3.140625 -7.890625 C 2.847656 -7.640625 2.703125 -7.320312 2.703125 -6.9375 C 2.703125 -6.707031 2.765625 -6.5 2.890625 -6.3125 C 3.023438 -6.132812 3.28125 -5.972656 3.65625 -5.828125 C 4.03125 -5.679688 4.582031 -5.523438 5.3125 -5.359375 C 6.113281 -5.203125 6.742188 -4.988281 7.203125 -4.71875 C 7.660156 -4.457031 7.984375 -4.148438 8.171875 -3.796875 C 8.367188 -3.453125 8.46875 -3.050781 8.46875 -2.59375 C 8.46875 -2.082031 8.320312 -1.613281 8.03125 -1.1875 C 7.738281 -0.769531 7.300781 -0.4375 6.71875 -0.1875 C 6.144531 0.0625 5.4375 0.1875 4.59375 0.1875 Z M 4.59375 0.1875 "/></g></g></g><g fill="#2791f4" fill-opacity="1"><g transform="translate(107.178494, 52.875)"><g><path d="M 1.75 0 C 1.632812 0 1.535156 -0.0351562 1.453125 -0.109375 C 1.378906 -0.191406 1.34375 -0.296875 1.34375 -0.421875 L 1.34375 -9 C 1.34375 -9.113281 1.378906 -9.207031 1.453125 -9.28125 C 1.535156 -9.363281 1.632812 -9.40625 1.75 -9.40625 L 2.625 -9.40625 C 2.738281 -9.40625 2.835938 -9.363281 2.921875 -9.28125 C 3.003906 -9.207031 3.046875 -9.113281 3.046875 -9 L 3.046875 -0.421875 C 3.046875 -0.296875 3.003906 -0.191406 2.921875 -0.109375 C 2.835938 -0.0351562 2.738281 0 2.625 0 Z M 1.609375 -11.15625 C 1.484375 -11.15625 1.378906 -11.195312 1.296875 -11.28125 C 1.222656 -11.363281 1.1875 -11.460938 1.1875 -11.578125 L 1.1875 -12.5625 C 1.1875 -12.675781 1.222656 -12.773438 1.296875 -12.859375 C 1.378906 -12.941406 1.484375 -12.984375 1.609375 -12.984375 L 2.75 -12.984375 C 2.875 -12.984375 2.976562 -12.941406 3.0625 -12.859375 C 3.144531 -12.773438 3.1875 -12.675781 3.1875 -12.5625 L 3.1875 -11.578125 C 3.1875 -11.460938 3.144531 -11.363281 3.0625 -11.28125 C 2.976562 -11.195312 2.875 -11.15625 2.75 -11.15625 Z M 1.609375 -11.15625 "/></g></g></g><g fill="#2791f4" fill-opacity="1"><g transform="translate(111.557305, 52.875)"><g><path d="M 1.75 0 C 1.632812 0 1.535156 -0.0351562 1.453125 -0.109375 C 1.378906 -0.191406 1.34375 -0.296875 1.34375 -0.421875 L 1.34375 -9 C 1.34375 -9.113281 1.378906 -9.207031 1.453125 -9.28125 C 1.535156 -9.363281 1.632812 -9.40625 1.75 -9.40625 L 2.609375 -9.40625 C 2.722656 -9.40625 2.816406 -9.363281 2.890625 -9.28125 C 2.972656 -9.207031 3.015625 -9.113281 3.015625 -9 L 3.015625 -8.203125 C 3.328125 -8.609375 3.722656 -8.941406 4.203125 -9.203125 C 4.679688 -9.460938 5.296875 -9.59375 6.046875 -9.59375 C 6.828125 -9.59375 7.488281 -9.421875 8.03125 -9.078125 C 8.582031 -8.734375 9 -8.253906 9.28125 -7.640625 C 9.570312 -7.035156 9.71875 -6.328125 9.71875 -5.515625 L 9.71875 -0.421875 C 9.71875 -0.296875 9.675781 -0.191406 9.59375 -0.109375 C 9.519531 -0.0351562 9.421875 0 9.296875 0 L 8.390625 0 C 8.273438 0 8.175781 -0.0351562 8.09375 -0.109375 C 8.019531 -0.191406 7.984375 -0.296875 7.984375 -0.421875 L 7.984375 -5.421875 C 7.984375 -6.265625 7.773438 -6.925781 7.359375 -7.40625 C 6.953125 -7.882812 6.351562 -8.125 5.5625 -8.125 C 4.8125 -8.125 4.207031 -7.882812 3.75 -7.40625 C 3.300781 -6.925781 3.078125 -6.265625 3.078125 -5.421875 L 3.078125 -0.421875 C 3.078125 -0.296875 3.035156 -0.191406 2.953125 -0.109375 C 2.878906 -0.0351562 2.78125 0 2.65625 0 Z M 1.75 0 "/></g></g></g><g fill="#2791f4" fill-opacity="1"><g transform="translate(122.522411, 52.875)"><g><path d="M 5.109375 0.1875 C 3.847656 0.1875 2.847656 -0.191406 2.109375 -0.953125 C 1.378906 -1.722656 0.976562 -2.773438 0.90625 -4.109375 C 0.894531 -4.265625 0.890625 -4.460938 0.890625 -4.703125 C 0.890625 -4.953125 0.894531 -5.15625 0.90625 -5.3125 C 0.957031 -6.175781 1.15625 -6.929688 1.5 -7.578125 C 1.851562 -8.222656 2.332031 -8.71875 2.9375 -9.0625 C 3.550781 -9.414062 4.265625 -9.59375 5.078125 -9.59375 C 5.992188 -9.59375 6.765625 -9.398438 7.390625 -9.015625 C 8.015625 -8.628906 8.488281 -8.078125 8.8125 -7.359375 C 9.132812 -6.648438 9.296875 -5.820312 9.296875 -4.875 L 9.296875 -4.5625 C 9.296875 -4.425781 9.253906 -4.320312 9.171875 -4.25 C 9.097656 -4.175781 9.003906 -4.140625 8.890625 -4.140625 L 2.625 -4.140625 C 2.625 -4.128906 2.625 -4.101562 2.625 -4.0625 C 2.625 -4.03125 2.625 -4.003906 2.625 -3.984375 C 2.644531 -3.484375 2.75 -3.019531 2.9375 -2.59375 C 3.132812 -2.164062 3.414062 -1.816406 3.78125 -1.546875 C 4.15625 -1.285156 4.585938 -1.15625 5.078125 -1.15625 C 5.515625 -1.15625 5.878906 -1.222656 6.171875 -1.359375 C 6.460938 -1.492188 6.695312 -1.640625 6.875 -1.796875 C 7.050781 -1.960938 7.171875 -2.09375 7.234375 -2.1875 C 7.347656 -2.332031 7.429688 -2.421875 7.484375 -2.453125 C 7.546875 -2.484375 7.644531 -2.5 7.78125 -2.5 L 8.671875 -2.5 C 8.773438 -2.5 8.863281 -2.460938 8.9375 -2.390625 C 9.019531 -2.328125 9.054688 -2.234375 9.046875 -2.109375 C 9.035156 -1.929688 8.9375 -1.710938 8.75 -1.453125 C 8.570312 -1.191406 8.316406 -0.9375 7.984375 -0.6875 C 7.648438 -0.4375 7.238281 -0.226562 6.75 -0.0625 C 6.269531 0.101562 5.722656 0.1875 5.109375 0.1875 Z M 2.625 -5.390625 L 7.578125 -5.390625 L 7.578125 -5.453125 C 7.578125 -5.992188 7.476562 -6.472656 7.28125 -6.890625 C 7.082031 -7.316406 6.796875 -7.648438 6.421875 -7.890625 C 6.046875 -8.140625 5.597656 -8.265625 5.078125 -8.265625 C 4.566406 -8.265625 4.125 -8.140625 3.75 -7.890625 C 3.382812 -7.648438 3.101562 -7.316406 2.90625 -6.890625 C 2.71875 -6.472656 2.625 -5.992188 2.625 -5.453125 Z M 2.625 -5.390625 "/></g></g></g><g fill="#2791f4" fill-opacity="1"><g transform="translate(132.655186, 52.875)"><g><path d="M 4.59375 0.1875 C 3.914062 0.1875 3.335938 0.101562 2.859375 -0.0625 C 2.378906 -0.238281 1.988281 -0.445312 1.6875 -0.6875 C 1.382812 -0.925781 1.15625 -1.164062 1 -1.40625 C 0.851562 -1.644531 0.773438 -1.835938 0.765625 -1.984375 C 0.742188 -2.117188 0.78125 -2.222656 0.875 -2.296875 C 0.976562 -2.367188 1.078125 -2.40625 1.171875 -2.40625 L 1.984375 -2.40625 C 2.046875 -2.40625 2.097656 -2.394531 2.140625 -2.375 C 2.179688 -2.363281 2.238281 -2.3125 2.3125 -2.21875 C 2.46875 -2.050781 2.640625 -1.882812 2.828125 -1.71875 C 3.023438 -1.550781 3.265625 -1.410156 3.546875 -1.296875 C 3.835938 -1.191406 4.191406 -1.140625 4.609375 -1.140625 C 5.222656 -1.140625 5.726562 -1.253906 6.125 -1.484375 C 6.53125 -1.722656 6.734375 -2.070312 6.734375 -2.53125 C 6.734375 -2.832031 6.648438 -3.070312 6.484375 -3.25 C 6.328125 -3.4375 6.039062 -3.601562 5.625 -3.75 C 5.207031 -3.894531 4.632812 -4.046875 3.90625 -4.203125 C 3.1875 -4.367188 2.613281 -4.570312 2.1875 -4.8125 C 1.769531 -5.0625 1.46875 -5.359375 1.28125 -5.703125 C 1.101562 -6.046875 1.015625 -6.4375 1.015625 -6.875 C 1.015625 -7.320312 1.144531 -7.753906 1.40625 -8.171875 C 1.675781 -8.585938 2.066406 -8.925781 2.578125 -9.1875 C 3.085938 -9.457031 3.726562 -9.59375 4.5 -9.59375 C 5.132812 -9.59375 5.671875 -9.515625 6.109375 -9.359375 C 6.554688 -9.203125 6.925781 -9.003906 7.21875 -8.765625 C 7.507812 -8.523438 7.726562 -8.289062 7.875 -8.0625 C 8.019531 -7.832031 8.097656 -7.640625 8.109375 -7.484375 C 8.117188 -7.367188 8.082031 -7.269531 8 -7.1875 C 7.914062 -7.113281 7.816406 -7.078125 7.703125 -7.078125 L 6.953125 -7.078125 C 6.867188 -7.078125 6.796875 -7.09375 6.734375 -7.125 C 6.679688 -7.164062 6.632812 -7.207031 6.59375 -7.25 C 6.46875 -7.40625 6.320312 -7.5625 6.15625 -7.71875 C 6 -7.882812 5.789062 -8.015625 5.53125 -8.109375 C 5.269531 -8.210938 4.925781 -8.265625 4.5 -8.265625 C 3.894531 -8.265625 3.441406 -8.140625 3.140625 -7.890625 C 2.847656 -7.640625 2.703125 -7.320312 2.703125 -6.9375 C 2.703125 -6.707031 2.765625 -6.5 2.890625 -6.3125 C 3.023438 -6.132812 3.28125 -5.972656 3.65625 -5.828125 C 4.03125 -5.679688 4.582031 -5.523438 5.3125 -5.359375 C 6.113281 -5.203125 6.742188 -4.988281 7.203125 -4.71875 C 7.660156 -4.457031 7.984375 -4.148438 8.171875 -3.796875 C 8.367188 -3.453125 8.46875 -3.050781 8.46875 -2.59375 C 8.46875 -2.082031 8.320312 -1.613281 8.03125 -1.1875 C 7.738281 -0.769531 7.300781 -0.4375 6.71875 -0.1875 C 6.144531 0.0625 5.4375 0.1875 4.59375 0.1875 Z M 4.59375 0.1875 "/></g></g></g><g fill="#2791f4" fill-opacity="1"><g transform="translate(141.883245, 52.875)"><g><path d="M 4.59375 0.1875 C 3.914062 0.1875 3.335938 0.101562 2.859375 -0.0625 C 2.378906 -0.238281 1.988281 -0.445312 1.6875 -0.6875 C 1.382812 -0.925781 1.15625 -1.164062 1 -1.40625 C 0.851562 -1.644531 0.773438 -1.835938 0.765625 -1.984375 C 0.742188 -2.117188 0.78125 -2.222656 0.875 -2.296875 C 0.976562 -2.367188 1.078125 -2.40625 1.171875 -2.40625 L 1.984375 -2.40625 C 2.046875 -2.40625 2.097656 -2.394531 2.140625 -2.375 C 2.179688 -2.363281 2.238281 -2.3125 2.3125 -2.21875 C 2.46875 -2.050781 2.640625 -1.882812 2.828125 -1.71875 C 3.023438 -1.550781 3.265625 -1.410156 3.546875 -1.296875 C 3.835938 -1.191406 4.191406 -1.140625 4.609375 -1.140625 C 5.222656 -1.140625 5.726562 -1.253906 6.125 -1.484375 C 6.53125 -1.722656 6.734375 -2.070312 6.734375 -2.53125 C 6.734375 -2.832031 6.648438 -3.070312 6.484375 -3.25 C 6.328125 -3.4375 6.039062 -3.601562 5.625 -3.75 C 5.207031 -3.894531 4.632812 -4.046875 3.90625 -4.203125 C 3.1875 -4.367188 2.613281 -4.570312 2.1875 -4.8125 C 1.769531 -5.0625 1.46875 -5.359375 1.28125 -5.703125 C 1.101562 -6.046875 1.015625 -6.4375 1.015625 -6.875 C 1.015625 -7.320312 1.144531 -7.753906 1.40625 -8.171875 C 1.675781 -8.585938 2.066406 -8.925781 2.578125 -9.1875 C 3.085938 -9.457031 3.726562 -9.59375 4.5 -9.59375 C 5.132812 -9.59375 5.671875 -9.515625 6.109375 -9.359375 C 6.554688 -9.203125 6.925781 -9.003906 7.21875 -8.765625 C 7.507812 -8.523438 7.726562 -8.289062 7.875 -8.0625 C 8.019531 -7.832031 8.097656 -7.640625 8.109375 -7.484375 C 8.117188 -7.367188 8.082031 -7.269531 8 -7.1875 C 7.914062 -7.113281 7.816406 -7.078125 7.703125 -7.078125 L 6.953125 -7.078125 C 6.867188 -7.078125 6.796875 -7.09375 6.734375 -7.125 C 6.679688 -7.164062 6.632812 -7.207031 6.59375 -7.25 C 6.46875 -7.40625 6.320312 -7.5625 6.15625 -7.71875 C 6 -7.882812 5.789062 -8.015625 5.53125 -8.109375 C 5.269531 -8.210938 4.925781 -8.265625 4.5 -8.265625 C 3.894531 -8.265625 3.441406 -8.140625 3.140625 -7.890625 C 2.847656 -7.640625 2.703125 -7.320312 2.703125 -6.9375 C 2.703125 -6.707031 2.765625 -6.5 2.890625 -6.3125 C 3.023438 -6.132812 3.28125 -5.972656 3.65625 -5.828125 C 4.03125 -5.679688 4.582031 -5.523438 5.3125 -5.359375 C 6.113281 -5.203125 6.742188 -4.988281 7.203125 -4.71875 C 7.660156 -4.457031 7.984375 -4.148438 8.171875 -3.796875 C 8.367188 -3.453125 8.46875 -3.050781 8.46875 -2.59375 C 8.46875 -2.082031 8.320312 -1.613281 8.03125 -1.1875 C 7.738281 -0.769531 7.300781 -0.4375 6.71875 -0.1875 C 6.144531 0.0625 5.4375 0.1875 4.59375 0.1875 Z M 4.59375 0.1875 "/></g></g></g><g fill="#2791f4" fill-opacity="1"><g transform="translate(151.111304, 52.875)"><g/></g></g><g fill="#2791f4" fill-opacity="1"><g transform="translate(155.544398, 52.875)"><g><path d="M 5.640625 0.1875 C 4.597656 0.1875 3.71875 0.0234375 3 -0.296875 C 2.289062 -0.628906 1.742188 -1.050781 1.359375 -1.5625 C 0.984375 -2.070312 0.785156 -2.613281 0.765625 -3.1875 C 0.765625 -3.28125 0.800781 -3.363281 0.875 -3.4375 C 0.957031 -3.519531 1.050781 -3.5625 1.15625 -3.5625 L 2.078125 -3.5625 C 2.222656 -3.5625 2.332031 -3.523438 2.40625 -3.453125 C 2.476562 -3.378906 2.523438 -3.296875 2.546875 -3.203125 C 2.617188 -2.910156 2.769531 -2.625 3 -2.34375 C 3.226562 -2.0625 3.554688 -1.828125 3.984375 -1.640625 C 4.410156 -1.453125 4.960938 -1.359375 5.640625 -1.359375 C 6.679688 -1.359375 7.445312 -1.539062 7.9375 -1.90625 C 8.425781 -2.269531 8.671875 -2.765625 8.671875 -3.390625 C 8.671875 -3.804688 8.539062 -4.144531 8.28125 -4.40625 C 8.019531 -4.664062 7.625 -4.894531 7.09375 -5.09375 C 6.5625 -5.300781 5.875 -5.523438 5.03125 -5.765625 C 4.144531 -6.023438 3.410156 -6.304688 2.828125 -6.609375 C 2.253906 -6.910156 1.828125 -7.28125 1.546875 -7.71875 C 1.265625 -8.164062 1.125 -8.734375 1.125 -9.421875 C 1.125 -10.078125 1.296875 -10.660156 1.640625 -11.171875 C 1.992188 -11.679688 2.5 -12.085938 3.15625 -12.390625 C 3.820312 -12.691406 4.625 -12.84375 5.5625 -12.84375 C 6.300781 -12.84375 6.953125 -12.742188 7.515625 -12.546875 C 8.078125 -12.347656 8.546875 -12.082031 8.921875 -11.75 C 9.296875 -11.414062 9.578125 -11.054688 9.765625 -10.671875 C 9.960938 -10.296875 10.066406 -9.929688 10.078125 -9.578125 C 10.078125 -9.484375 10.046875 -9.394531 9.984375 -9.3125 C 9.921875 -9.238281 9.828125 -9.203125 9.703125 -9.203125 L 8.734375 -9.203125 C 8.648438 -9.203125 8.5625 -9.226562 8.46875 -9.28125 C 8.382812 -9.332031 8.316406 -9.421875 8.265625 -9.546875 C 8.191406 -10.046875 7.914062 -10.460938 7.4375 -10.796875 C 6.957031 -11.140625 6.332031 -11.3125 5.5625 -11.3125 C 4.769531 -11.3125 4.128906 -11.160156 3.640625 -10.859375 C 3.148438 -10.554688 2.90625 -10.082031 2.90625 -9.4375 C 2.90625 -9.03125 3.019531 -8.691406 3.25 -8.421875 C 3.476562 -8.148438 3.835938 -7.910156 4.328125 -7.703125 C 4.828125 -7.503906 5.476562 -7.289062 6.28125 -7.0625 C 7.238281 -6.789062 8.023438 -6.503906 8.640625 -6.203125 C 9.265625 -5.910156 9.722656 -5.546875 10.015625 -5.109375 C 10.304688 -4.671875 10.453125 -4.109375 10.453125 -3.421875 C 10.453125 -2.660156 10.253906 -2.007812 9.859375 -1.46875 C 9.460938 -0.9375 8.90625 -0.523438 8.1875 -0.234375 C 7.46875 0.046875 6.617188 0.1875 5.640625 0.1875 Z M 5.640625 0.1875 "/></g></g></g><g fill="#2791f4" fill-opacity="1"><g transform="translate(166.799011, 52.875)"><g><path d="M 5.1875 0.1875 C 4.269531 0.1875 3.503906 0.0078125 2.890625 -0.34375 C 2.273438 -0.695312 1.804688 -1.179688 1.484375 -1.796875 C 1.160156 -2.421875 0.976562 -3.128906 0.9375 -3.921875 C 0.925781 -4.128906 0.921875 -4.390625 0.921875 -4.703125 C 0.921875 -5.023438 0.925781 -5.285156 0.9375 -5.484375 C 0.976562 -6.285156 1.160156 -6.992188 1.484375 -7.609375 C 1.816406 -8.234375 2.289062 -8.71875 2.90625 -9.0625 C 3.519531 -9.414062 4.28125 -9.59375 5.1875 -9.59375 C 6.09375 -9.59375 6.851562 -9.414062 7.46875 -9.0625 C 8.082031 -8.71875 8.554688 -8.234375 8.890625 -7.609375 C 9.222656 -6.992188 9.40625 -6.285156 9.4375 -5.484375 C 9.457031 -5.285156 9.46875 -5.023438 9.46875 -4.703125 C 9.46875 -4.390625 9.457031 -4.128906 9.4375 -3.921875 C 9.40625 -3.128906 9.222656 -2.421875 8.890625 -1.796875 C 8.566406 -1.179688 8.097656 -0.695312 7.484375 -0.34375 C 6.867188 0.0078125 6.101562 0.1875 5.1875 0.1875 Z M 5.1875 -1.21875 C 5.9375 -1.21875 6.535156 -1.453125 6.984375 -1.921875 C 7.429688 -2.398438 7.671875 -3.097656 7.703125 -4.015625 C 7.710938 -4.191406 7.71875 -4.421875 7.71875 -4.703125 C 7.71875 -4.984375 7.710938 -5.210938 7.703125 -5.390625 C 7.671875 -6.304688 7.429688 -7.003906 6.984375 -7.484375 C 6.535156 -7.960938 5.9375 -8.203125 5.1875 -8.203125 C 4.445312 -8.203125 3.847656 -7.960938 3.390625 -7.484375 C 2.941406 -7.003906 2.703125 -6.304688 2.671875 -5.390625 C 2.660156 -5.210938 2.65625 -4.984375 2.65625 -4.703125 C 2.65625 -4.421875 2.660156 -4.191406 2.671875 -4.015625 C 2.703125 -3.097656 2.941406 -2.398438 3.390625 -1.921875 C 3.847656 -1.453125 4.445312 -1.21875 5.1875 -1.21875 Z M 5.1875 -1.21875 "/></g></g></g><g fill="#2791f4" fill-opacity="1"><g transform="translate(177.185101, 52.875)"><g><path d="M 1.765625 0 C 1.648438 0 1.550781 -0.0351562 1.46875 -0.109375 C 1.394531 -0.191406 1.359375 -0.296875 1.359375 -0.421875 L 1.359375 -12.4375 C 1.359375 -12.550781 1.394531 -12.644531 1.46875 -12.71875 C 1.550781 -12.800781 1.648438 -12.84375 1.765625 -12.84375 L 2.625 -12.84375 C 2.757812 -12.84375 2.863281 -12.800781 2.9375 -12.71875 C 3.007812 -12.644531 3.046875 -12.550781 3.046875 -12.4375 L 3.046875 -0.421875 C 3.046875 -0.296875 3.007812 -0.191406 2.9375 -0.109375 C 2.863281 -0.0351562 2.757812 0 2.625 0 Z M 1.765625 0 "/></g></g></g><g fill="#2791f4" fill-opacity="1"><g transform="translate(181.582003, 52.875)"><g><path d="M 4.84375 0.1875 C 4.070312 0.1875 3.414062 0.015625 2.875 -0.328125 C 2.34375 -0.671875 1.9375 -1.148438 1.65625 -1.765625 C 1.382812 -2.390625 1.25 -3.097656 1.25 -3.890625 L 1.25 -9 C 1.25 -9.113281 1.285156 -9.207031 1.359375 -9.28125 C 1.441406 -9.363281 1.546875 -9.40625 1.671875 -9.40625 L 2.5625 -9.40625 C 2.6875 -9.40625 2.785156 -9.363281 2.859375 -9.28125 C 2.941406 -9.207031 2.984375 -9.113281 2.984375 -9 L 2.984375 -3.984375 C 2.984375 -2.179688 3.769531 -1.28125 5.34375 -1.28125 C 6.082031 -1.28125 6.675781 -1.519531 7.125 -2 C 7.582031 -2.476562 7.8125 -3.140625 7.8125 -3.984375 L 7.8125 -9 C 7.8125 -9.113281 7.847656 -9.207031 7.921875 -9.28125 C 8.003906 -9.363281 8.109375 -9.40625 8.234375 -9.40625 L 9.140625 -9.40625 C 9.253906 -9.40625 9.347656 -9.363281 9.421875 -9.28125 C 9.492188 -9.207031 9.53125 -9.113281 9.53125 -9 L 9.53125 -0.421875 C 9.53125 -0.296875 9.492188 -0.191406 9.421875 -0.109375 C 9.347656 -0.0351562 9.253906 0 9.140625 0 L 8.28125 0 C 8.164062 0 8.066406 -0.0351562 7.984375 -0.109375 C 7.910156 -0.191406 7.875 -0.296875 7.875 -0.421875 L 7.875 -1.21875 C 7.539062 -0.789062 7.140625 -0.445312 6.671875 -0.1875 C 6.210938 0.0625 5.601562 0.1875 4.84375 0.1875 Z M 4.84375 0.1875 "/></g></g></g><g fill="#2791f4" fill-opacity="1"><g transform="translate(192.474735, 52.875)"><g><path d="M 5.015625 0 C 4.335938 0 3.785156 -0.128906 3.359375 -0.390625 C 2.941406 -0.648438 2.632812 -1.015625 2.4375 -1.484375 C 2.25 -1.960938 2.15625 -2.53125 2.15625 -3.1875 L 2.15625 -7.96875 L 0.734375 -7.96875 C 0.617188 -7.96875 0.519531 -8.003906 0.4375 -8.078125 C 0.363281 -8.160156 0.328125 -8.257812 0.328125 -8.375 L 0.328125 -9 C 0.328125 -9.113281 0.363281 -9.207031 0.4375 -9.28125 C 0.519531 -9.363281 0.617188 -9.40625 0.734375 -9.40625 L 2.15625 -9.40625 L 2.15625 -12.4375 C 2.15625 -12.550781 2.191406 -12.644531 2.265625 -12.71875 C 2.347656 -12.800781 2.445312 -12.84375 2.5625 -12.84375 L 3.421875 -12.84375 C 3.535156 -12.84375 3.628906 -12.800781 3.703125 -12.71875 C 3.785156 -12.644531 3.828125 -12.550781 3.828125 -12.4375 L 3.828125 -9.40625 L 6.078125 -9.40625 C 6.210938 -9.40625 6.316406 -9.363281 6.390625 -9.28125 C 6.460938 -9.207031 6.5 -9.113281 6.5 -9 L 6.5 -8.375 C 6.5 -8.257812 6.460938 -8.160156 6.390625 -8.078125 C 6.316406 -8.003906 6.210938 -7.96875 6.078125 -7.96875 L 3.828125 -7.96875 L 3.828125 -3.3125 C 3.828125 -2.738281 3.925781 -2.289062 4.125 -1.96875 C 4.320312 -1.644531 4.664062 -1.484375 5.15625 -1.484375 L 6.265625 -1.484375 C 6.378906 -1.484375 6.472656 -1.441406 6.546875 -1.359375 C 6.628906 -1.285156 6.671875 -1.1875 6.671875 -1.0625 L 6.671875 -0.421875 C 6.671875 -0.296875 6.628906 -0.191406 6.546875 -0.109375 C 6.472656 -0.0351562 6.378906 0 6.265625 0 Z M 5.015625 0 "/></g></g></g><g fill="#2791f4" fill-opacity="1"><g transform="translate(199.549581, 52.875)"><g><path d="M 1.75 0 C 1.632812 0 1.535156 -0.0351562 1.453125 -0.109375 C 1.378906 -0.191406 1.34375 -0.296875 1.34375 -0.421875 L 1.34375 -9 C 1.34375 -9.113281 1.378906 -9.207031 1.453125 -9.28125 C 1.535156 -9.363281 1.632812 -9.40625 1.75 -9.40625 L 2.625 -9.40625 C 2.738281 -9.40625 2.835938 -9.363281 2.921875 -9.28125 C 3.003906 -9.207031 3.046875 -9.113281 3.046875 -9 L 3.046875 -0.421875 C 3.046875 -0.296875 3.003906 -0.191406 2.921875 -0.109375 C 2.835938 -0.0351562 2.738281 0 2.625 0 Z M 1.609375 -11.15625 C 1.484375 -11.15625 1.378906 -11.195312 1.296875 -11.28125 C 1.222656 -11.363281 1.1875 -11.460938 1.1875 -11.578125 L 1.1875 -12.5625 C 1.1875 -12.675781 1.222656 -12.773438 1.296875 -12.859375 C 1.378906 -12.941406 1.484375 -12.984375 1.609375 -12.984375 L 2.75 -12.984375 C 2.875 -12.984375 2.976562 -12.941406 3.0625 -12.859375 C 3.144531 -12.773438 3.1875 -12.675781 3.1875 -12.5625 L 3.1875 -11.578125 C 3.1875 -11.460938 3.144531 -11.363281 3.0625 -11.28125 C 2.976562 -11.195312 2.875 -11.15625 2.75 -11.15625 Z M 1.609375 -11.15625 "/></g></g></g><g fill="#2791f4" fill-opacity="1"><g transform="translate(203.928391, 52.875)"><g><path d="M 5.1875 0.1875 C 4.269531 0.1875 3.503906 0.0078125 2.890625 -0.34375 C 2.273438 -0.695312 1.804688 -1.179688 1.484375 -1.796875 C 1.160156 -2.421875 0.976562 -3.128906 0.9375 -3.921875 C 0.925781 -4.128906 0.921875 -4.390625 0.921875 -4.703125 C 0.921875 -5.023438 0.925781 -5.285156 0.9375 -5.484375 C 0.976562 -6.285156 1.160156 -6.992188 1.484375 -7.609375 C 1.816406 -8.234375 2.289062 -8.71875 2.90625 -9.0625 C 3.519531 -9.414062 4.28125 -9.59375 5.1875 -9.59375 C 6.09375 -9.59375 6.851562 -9.414062 7.46875 -9.0625 C 8.082031 -8.71875 8.554688 -8.234375 8.890625 -7.609375 C 9.222656 -6.992188 9.40625 -6.285156 9.4375 -5.484375 C 9.457031 -5.285156 9.46875 -5.023438 9.46875 -4.703125 C 9.46875 -4.390625 9.457031 -4.128906 9.4375 -3.921875 C 9.40625 -3.128906 9.222656 -2.421875 8.890625 -1.796875 C 8.566406 -1.179688 8.097656 -0.695312 7.484375 -0.34375 C 6.867188 0.0078125 6.101562 0.1875 5.1875 0.1875 Z M 5.1875 -1.21875 C 5.9375 -1.21875 6.535156 -1.453125 6.984375 -1.921875 C 7.429688 -2.398438 7.671875 -3.097656 7.703125 -4.015625 C 7.710938 -4.191406 7.71875 -4.421875 7.71875 -4.703125 C 7.71875 -4.984375 7.710938 -5.210938 7.703125 -5.390625 C 7.671875 -6.304688 7.429688 -7.003906 6.984375 -7.484375 C 6.535156 -7.960938 5.9375 -8.203125 5.1875 -8.203125 C 4.445312 -8.203125 3.847656 -7.960938 3.390625 -7.484375 C 2.941406 -7.003906 2.703125 -6.304688 2.671875 -5.390625 C 2.660156 -5.210938 2.65625 -4.984375 2.65625 -4.703125 C 2.65625 -4.421875 2.660156 -4.191406 2.671875 -4.015625 C 2.703125 -3.097656 2.941406 -2.398438 3.390625 -1.921875 C 3.847656 -1.453125 4.445312 -1.21875 5.1875 -1.21875 Z M 5.1875 -1.21875 "/></g></g></g><g fill="#2791f4" fill-opacity="1"><g transform="translate(214.314482, 52.875)"><g><path d="M 1.75 0 C 1.632812 0 1.535156 -0.0351562 1.453125 -0.109375 C 1.378906 -0.191406 1.34375 -0.296875 1.34375 -0.421875 L 1.34375 -9 C 1.34375 -9.113281 1.378906 -9.207031 1.453125 -9.28125 C 1.535156 -9.363281 1.632812 -9.40625 1.75 -9.40625 L 2.609375 -9.40625 C 2.722656 -9.40625 2.816406 -9.363281 2.890625 -9.28125 C 2.972656 -9.207031 3.015625 -9.113281 3.015625 -9 L 3.015625 -8.203125 C 3.328125 -8.609375 3.722656 -8.941406 4.203125 -9.203125 C 4.679688 -9.460938 5.296875 -9.59375 6.046875 -9.59375 C 6.828125 -9.59375 7.488281 -9.421875 8.03125 -9.078125 C 8.582031 -8.734375 9 -8.253906 9.28125 -7.640625 C 9.570312 -7.035156 9.71875 -6.328125 9.71875 -5.515625 L 9.71875 -0.421875 C 9.71875 -0.296875 9.675781 -0.191406 9.59375 -0.109375 C 9.519531 -0.0351562 9.421875 0 9.296875 0 L 8.390625 0 C 8.273438 0 8.175781 -0.0351562 8.09375 -0.109375 C 8.019531 -0.191406 7.984375 -0.296875 7.984375 -0.421875 L 7.984375 -5.421875 C 7.984375 -6.265625 7.773438 -6.925781 7.359375 -7.40625 C 6.953125 -7.882812 6.351562 -8.125 5.5625 -8.125 C 4.8125 -8.125 4.207031 -7.882812 3.75 -7.40625 C 3.300781 -6.925781 3.078125 -6.265625 3.078125 -5.421875 L 3.078125 -0.421875 C 3.078125 -0.296875 3.035156 -0.191406 2.953125 -0.109375 C 2.878906 -0.0351562 2.78125 0 2.65625 0 Z M 1.75 0 "/></g></g></g><g fill="#2791f4" fill-opacity="1"><g transform="translate(225.279587, 52.875)"><g><path d="M 4.59375 0.1875 C 3.914062 0.1875 3.335938 0.101562 2.859375 -0.0625 C 2.378906 -0.238281 1.988281 -0.445312 1.6875 -0.6875 C 1.382812 -0.925781 1.15625 -1.164062 1 -1.40625 C 0.851562 -1.644531 0.773438 -1.835938 0.765625 -1.984375 C 0.742188 -2.117188 0.78125 -2.222656 0.875 -2.296875 C 0.976562 -2.367188 1.078125 -2.40625 1.171875 -2.40625 L 1.984375 -2.40625 C 2.046875 -2.40625 2.097656 -2.394531 2.140625 -2.375 C 2.179688 -2.363281 2.238281 -2.3125 2.3125 -2.21875 C 2.46875 -2.050781 2.640625 -1.882812 2.828125 -1.71875 C 3.023438 -1.550781 3.265625 -1.410156 3.546875 -1.296875 C 3.835938 -1.191406 4.191406 -1.140625 4.609375 -1.140625 C 5.222656 -1.140625 5.726562 -1.253906 6.125 -1.484375 C 6.53125 -1.722656 6.734375 -2.070312 6.734375 -2.53125 C 6.734375 -2.832031 6.648438 -3.070312 6.484375 -3.25 C 6.328125 -3.4375 6.039062 -3.601562 5.625 -3.75 C 5.207031 -3.894531 4.632812 -4.046875 3.90625 -4.203125 C 3.1875 -4.367188 2.613281 -4.570312 2.1875 -4.8125 C 1.769531 -5.0625 1.46875 -5.359375 1.28125 -5.703125 C 1.101562 -6.046875 1.015625 -6.4375 1.015625 -6.875 C 1.015625 -7.320312 1.144531 -7.753906 1.40625 -8.171875 C 1.675781 -8.585938 2.066406 -8.925781 2.578125 -9.1875 C 3.085938 -9.457031 3.726562 -9.59375 4.5 -9.59375 C 5.132812 -9.59375 5.671875 -9.515625 6.109375 -9.359375 C 6.554688 -9.203125 6.925781 -9.003906 7.21875 -8.765625 C 7.507812 -8.523438 7.726562 -8.289062 7.875 -8.0625 C 8.019531 -7.832031 8.097656 -7.640625 8.109375 -7.484375 C 8.117188 -7.367188 8.082031 -7.269531 8 -7.1875 C 7.914062 -7.113281 7.816406 -7.078125 7.703125 -7.078125 L 6.953125 -7.078125 C 6.867188 -7.078125 6.796875 -7.09375 6.734375 -7.125 C 6.679688 -7.164062 6.632812 -7.207031 6.59375 -7.25 C 6.46875 -7.40625 6.320312 -7.5625 6.15625 -7.71875 C 6 -7.882812 5.789062 -8.015625 5.53125 -8.109375 C 5.269531 -8.210938 4.925781 -8.265625 4.5 -8.265625 C 3.894531 -8.265625 3.441406 -8.140625 3.140625 -7.890625 C 2.847656 -7.640625 2.703125 -7.320312 2.703125 -6.9375 C 2.703125 -6.707031 2.765625 -6.5 2.890625 -6.3125 C 3.023438 -6.132812 3.28125 -5.972656 3.65625 -5.828125 C 4.03125 -5.679688 4.582031 -5.523438 5.3125 -5.359375 C 6.113281 -5.203125 6.742188 -4.988281 7.203125 -4.71875 C 7.660156 -4.457031 7.984375 -4.148438 8.171875 -3.796875 C 8.367188 -3.453125 8.46875 -3.050781 8.46875 -2.59375 C 8.46875 -2.082031 8.320312 -1.613281 8.03125 -1.1875 C 7.738281 -0.769531 7.300781 -0.4375 6.71875 -0.1875 C 6.144531 0.0625 5.4375 0.1875 4.59375 0.1875 Z M 4.59375 0.1875 "/></g></g></g></svg>