<svg width="28" height="28" viewBox="0 0 28 28" fill="none" xmlns="http://www.w3.org/2000/svg">
<path d="M19.8334 24.7917H8.16671C3.90837 24.7917 1.45837 22.3417 1.45837 18.0834V9.91671C1.45837 5.65837 3.90837 3.20837 8.16671 3.20837H19.8334C24.0917 3.20837 26.5417 5.65837 26.5417 9.91671V18.0834C26.5417 22.3417 24.0917 24.7917 19.8334 24.7917ZM8.16671 4.95837C4.83004 4.95837 3.20837 6.58004 3.20837 9.91671V18.0834C3.20837 21.42 4.83004 23.0417 8.16671 23.0417H19.8334C23.17 23.0417 24.7917 21.42 24.7917 18.0834V9.91671C24.7917 6.58004 23.17 4.95837 19.8334 4.95837H8.16671Z" fill="#2791F4"/>
<path d="M13.9997 15.015C13.0197 15.015 12.028 14.7116 11.2697 14.0933L7.61803 11.1766C7.2447 10.8733 7.1747 10.325 7.47804 9.95163C7.78137 9.5783 8.32971 9.5083 8.70304 9.81164L12.3547 12.7283C13.2414 13.44 14.7464 13.44 15.633 12.7283L19.2847 9.81164C19.658 9.5083 20.218 9.56663 20.5097 9.95163C20.813 10.325 20.7547 10.885 20.3697 11.1766L16.718 14.0933C15.9714 14.7116 14.9797 15.015 13.9997 15.015Z" fill="#2791F4"/>
</svg>
