<svg width="27" height="26" viewBox="0 0 27 26" fill="none" xmlns="http://www.w3.org/2000/svg">
<path d="M21.3912 16.0109C21.0459 16.3455 20.8872 16.8295 20.9659 17.3042L22.1512 23.8642C22.2512 24.4202 22.0165 24.9829 21.5512 25.3042C21.0952 25.6375 20.4885 25.6775 19.9912 25.4109L14.0858 22.3309C13.8805 22.2215 13.6525 22.1629 13.4192 22.1562H13.0578C12.9325 22.1749 12.8099 22.2149 12.6979 22.2762L6.79118 25.3709C6.49918 25.5175 6.16852 25.5695 5.84452 25.5175C5.05518 25.3682 4.52852 24.6162 4.65785 23.8229L5.84452 17.2629C5.92318 16.7842 5.76452 16.2975 5.41918 15.9575L0.604517 11.2909C0.20185 10.9002 0.06185 10.3135 0.24585 9.78419C0.424517 9.25619 0.880517 8.87085 1.43118 8.78419L8.05785 7.82285C8.56185 7.77085 9.00452 7.46419 9.23118 7.01085L12.1512 1.02419C12.2205 0.890854 12.3099 0.768188 12.4179 0.664188L12.5378 0.570854C12.6005 0.501521 12.6725 0.444188 12.7525 0.397521L12.8979 0.344188L13.1245 0.250854H13.6859C14.1872 0.302854 14.6285 0.602855 14.8592 1.05085L17.8179 7.01085C18.0312 7.44685 18.4459 7.74952 18.9245 7.82285L25.5512 8.78419C26.1112 8.86419 26.5792 9.25085 26.7645 9.78419C26.9392 10.3189 26.7885 10.9055 26.3779 11.2909L21.3912 16.0109Z" fill="#2791F4"/>
</svg>
