<svg width="180" height="180" viewBox="0 0 180 180" fill="none" xmlns="http://www.w3.org/2000/svg">
<path d="M131.667 0.416687H15.0001C11.1377 0.434223 7.4386 1.97631 4.70748 4.70742C1.97637 7.43854 0.434284 11.1377 0.416748 15V165C0.434284 168.862 1.97637 172.562 4.70748 175.293C7.4386 178.024 11.1377 179.566 15.0001 179.583H140C140.917 179.583 141.833 179.583 142.75 179.5C142.848 179.401 142.961 179.317 143.083 179.25C144.606 175.083 145.613 170.745 146.083 166.333C144.094 166.834 142.051 167.086 140 167.083C132.817 167.083 125.928 164.23 120.849 159.151C115.77 154.072 112.917 147.183 112.917 140C112.917 132.817 115.77 125.928 120.849 120.849C125.928 115.77 132.817 112.917 140 112.917C142.106 112.909 144.205 113.161 146.25 113.667V15C146.233 11.1377 144.69 7.43854 141.959 4.70742C139.228 1.97631 135.529 0.434223 131.667 0.416687ZM35.8334 33.75H110.833C112.491 33.75 114.081 34.4085 115.253 35.5806C116.425 36.7527 117.083 38.3424 117.083 40C117.083 41.6576 116.425 43.2473 115.253 44.4194C114.081 45.5915 112.491 46.25 110.833 46.25H35.8334C34.1758 46.25 32.5861 45.5915 31.414 44.4194C30.2419 43.2473 29.5834 41.6576 29.5834 40C29.5834 38.3424 30.2419 36.7527 31.414 35.5806C32.5861 34.4085 34.1758 33.75 35.8334 33.75ZM35.8334 67.0834H110.833C112.491 67.0834 114.081 67.7418 115.253 68.9139C116.425 70.086 117.083 71.6758 117.083 73.3334C117.083 74.991 116.425 76.5807 115.253 77.7528C114.081 78.9249 112.491 79.5834 110.833 79.5834H35.8334C34.1758 79.5834 32.5861 78.9249 31.414 77.7528C30.2419 76.5807 29.5834 74.991 29.5834 73.3334C29.5834 71.6758 30.2419 70.086 31.414 68.9139C32.5861 67.7418 34.1758 67.0834 35.8334 67.0834ZM81.6668 146.25H35.8334C34.1758 146.25 32.5861 145.592 31.414 144.419C30.2419 143.247 29.5834 141.658 29.5834 140C29.5834 138.342 30.2419 136.753 31.414 135.581C32.5861 134.409 34.1758 133.75 35.8334 133.75H81.6668C83.3244 133.75 84.9141 134.409 86.0862 135.581C87.2583 136.753 87.9168 138.342 87.9168 140C87.9168 141.658 87.2583 143.247 86.0862 144.419C84.9141 145.592 83.3244 146.25 81.6668 146.25ZM90.0001 112.917H35.8334C34.1758 112.917 32.5861 112.258 31.414 111.086C30.2419 109.914 29.5834 108.324 29.5834 106.667C29.5834 105.009 30.2419 103.419 31.414 102.247C32.5861 101.075 34.1758 100.417 35.8334 100.417H90.0001C91.6577 100.417 93.2474 101.075 94.4195 102.247C95.5916 103.419 96.2501 105.009 96.2501 106.667C96.2501 108.324 95.5916 109.914 94.4195 111.086C93.2474 112.258 91.6577 112.917 90.0001 112.917Z" fill="white"/>
<path d="M146.25 100.917C141.107 100.162 135.865 100.427 130.824 101.698C125.783 102.968 121.042 105.219 116.871 108.322C112.7 111.426 109.181 115.32 106.515 119.783C103.849 124.246 102.089 129.19 101.333 134.333C100.578 139.477 100.844 144.719 102.114 149.76C103.385 154.8 105.636 159.542 108.739 163.713C111.842 167.883 115.736 171.402 120.199 174.068C124.662 176.734 129.607 178.495 134.75 179.25C136.49 179.485 138.244 179.597 140 179.583C140.917 179.583 141.833 179.583 142.75 179.5C152.452 178.834 161.569 174.62 168.363 167.661C175.156 160.702 179.15 151.486 179.583 141.771C180.016 132.056 176.857 122.521 170.709 114.986C164.561 107.451 155.854 102.443 146.25 100.917ZM146.083 166.333C144.094 166.834 142.051 167.086 140 167.083C132.817 167.083 125.928 164.23 120.849 159.151C115.77 154.072 112.917 147.183 112.917 140C112.917 132.817 115.77 125.928 120.849 120.849C125.928 115.77 132.817 112.917 140 112.917C142.106 112.909 144.205 113.161 146.25 113.667C152.195 115.066 157.491 118.437 161.275 123.231C165.059 128.025 167.108 133.959 167.089 140.066C167.069 146.174 164.982 152.094 161.168 156.864C157.354 161.634 152.037 164.972 146.083 166.333Z" fill="white"/>
<path d="M135.833 154.583C135.013 154.584 134.2 154.422 133.442 154.107C132.684 153.792 131.996 153.331 131.417 152.75L123.083 144.417C122.469 143.845 121.977 143.155 121.635 142.388C121.294 141.621 121.11 140.794 121.095 139.954C121.08 139.115 121.235 138.282 121.549 137.503C121.863 136.725 122.331 136.018 122.925 135.425C123.518 134.831 124.225 134.363 125.004 134.049C125.782 133.735 126.615 133.58 127.454 133.595C128.294 133.61 129.121 133.794 129.888 134.135C130.655 134.477 131.345 134.969 131.917 135.583L135.833 139.5L148.083 127.25C149.268 126.146 150.835 125.545 152.454 125.574C154.074 125.602 155.619 126.258 156.764 127.403C157.909 128.548 158.565 130.093 158.593 131.712C158.622 133.332 158.021 134.899 156.917 136.083L140.25 152.75C139.671 153.331 138.983 153.792 138.225 154.107C137.467 154.422 136.654 154.584 135.833 154.583Z" fill="white"/>
</svg>
