<svg width="32" height="28" viewBox="0 0 32 28" fill="none" xmlns="http://www.w3.org/2000/svg">
<path fill-rule="evenodd" clip-rule="evenodd" d="M13.8722 27.8725C6.22003 27.8725 0 21.6517 0 14.0004C0 6.34897 6.22003 0.128204 13.8722 0.128204C17.3808 0.128204 20.6739 1.40233 23.2391 3.75422C22.3841 4.26117 21.5598 4.81825 20.7706 5.42254C18.8177 3.84538 16.3823 2.98694 13.8722 2.99092C7.80788 2.99092 2.86272 7.93609 2.86272 14.0004C2.86272 20.0646 7.80788 25.0091 13.8722 25.0091C22.3097 25.0091 27.3191 15.9898 23.6901 8.97768C24.404 8.31361 25.1433 7.6773 25.9062 7.07019C27.1205 9.16666 27.7443 11.5444 27.7443 13.9996C27.7443 21.6517 21.5243 27.8725 13.8722 27.8725Z" fill="white"/>
<path fill-rule="evenodd" clip-rule="evenodd" d="M14.2368 21.1313C14.1636 21.1302 14.0922 21.1074 14.0319 21.0657C13.9716 21.0241 13.925 20.9655 13.898 20.8973C13.8722 20.8456 11.634 15.0671 8.17258 12.8805C7.49565 12.4642 6.97523 12.022 7.1834 11.0328C7.39157 10.0702 8.04192 9.52321 9.21343 9.26337C11.2951 8.82045 13.5341 12.0478 14.366 13.3751C17.2819 9.13345 23.1114 2.4705 31.5962 1.68949C32.0052 1.64151 32.1573 2.2483 31.7786 2.41809C31.6486 2.46976 19.5201 8.0136 14.6008 20.9232C14.564 20.987 14.5109 21.0399 14.447 21.0765C14.383 21.1131 14.3105 21.132 14.2368 21.1313Z" fill="white"/>
</svg>
